<svg width="350" height="350" viewBox="0 0 350 350" fill="none" xmlns="http://www.w3.org/2000/svg">
<circle cx="175" cy="175" r="175" fill="#0F59D2"/>
<path d="M202.599 300.175H125.649C112.452 300.175 101.654 289.42 101.654 276.275V208.559C101.654 195.414 112.452 184.66 125.649 184.66H202.6C215.797 184.66 226.595 195.414 226.595 208.559V276.275C226.595 289.419 215.796 300.175 202.599 300.175Z" fill="white"/>
<path d="M202.596 184.659C215.794 184.659 226.591 195.413 226.591 208.558V276.274C226.591 289.419 215.794 300.173 202.596 300.173H125.647C112.449 300.173 101.652 289.419 101.652 276.274V208.558C101.652 195.413 112.449 184.659 125.647 184.659H202.596ZM202.596 180.881H125.647C121.91 180.881 118.276 181.617 114.848 183.068C111.542 184.467 108.572 186.465 106.019 189.009C103.466 191.551 101.459 194.511 100.055 197.802C98.5984 201.217 97.8594 204.836 97.8594 208.558V276.274C97.8594 279.997 98.5984 283.616 100.055 287.031C101.459 290.323 103.465 293.281 106.019 295.824C108.572 298.367 111.544 300.366 114.848 301.764C118.276 303.215 121.91 303.951 125.647 303.951H202.597C206.335 303.951 209.968 303.215 213.397 301.764C216.702 300.366 219.672 298.368 222.225 295.824C224.779 293.281 226.785 290.322 228.19 287.031C229.646 283.616 230.385 279.997 230.385 276.274V208.558C230.385 204.836 229.646 201.217 228.19 197.802C226.785 194.51 224.78 191.551 222.225 189.009C219.672 186.466 216.701 184.467 213.397 183.068C209.968 181.617 206.334 180.881 202.596 180.881Z" fill="#00227B"/>
<path d="M224.873 258.302C212.892 259.701 200.951 260.045 200.951 260.045C200.951 260.045 194.869 229.842 193.183 206.157C191.941 188.609 193.11 174.644 200.951 179.198C204.558 181.294 208.713 185.241 213.045 190.248C229.294 209.034 247.963 242.767 248.987 249.766C249.648 254.268 237.244 256.849 224.873 258.302Z" fill="white"/>
<path d="M199.35 262.058L199.022 260.433C198.986 260.248 195.266 241.689 192.86 222.473C191.44 211.143 190.747 201.789 190.796 194.671C190.865 184.948 192.282 179.434 195.257 177.317C196.563 176.388 198.784 175.667 201.948 177.505C212.379 183.567 225.618 202.876 232.582 213.846C237.226 221.163 241.672 228.856 245.102 235.504C247.519 240.189 250.493 246.416 250.943 249.482C251.074 250.373 250.986 251.723 249.827 253.098C248.15 255.086 244.669 256.643 238.868 257.994C234.615 258.985 229.15 259.837 222.624 260.528C211.576 261.697 201.116 262.007 201.012 262.01L199.35 262.058ZM198.238 180.293C197.857 180.293 197.658 180.436 197.549 180.512C196.262 181.428 192.407 187.12 196.769 221.966C198.746 237.748 201.614 253.091 202.568 258.023C205.932 257.888 213.914 257.501 222.23 256.62C241.536 254.575 245.849 251.709 246.808 250.573C247.073 250.258 247.052 250.113 247.042 250.05C246.482 246.235 239.198 231.619 229.25 215.944C217.727 197.791 207.053 185.016 199.962 180.897C199.158 180.429 198.611 180.293 198.238 180.293Z" fill="#00227B"/>
<path d="M139.985 178.085L137.559 196.356L136.18 206.743L133.238 228.921C133.238 228.921 127.861 232.563 118.917 235.449C115.575 236.53 111.725 237.496 107.478 238.129C100.534 239.17 92.505 239.302 83.8066 237.53C61.4272 232.965 47.9966 216.408 42.1818 208.083C30.9433 192.016 29.2139 187.671 32.338 180.907C34.7231 175.723 38.8095 174.777 38.8095 174.777C38.8095 174.777 38.6079 170.635 41.9 169.161C51.7666 164.748 64.4766 176.534 64.4766 176.534C64.4766 176.534 64.9501 163.86 71.7608 166.786C76.453 168.803 77.5171 182.602 77.5171 182.602C77.5171 182.602 83.8152 190.662 93.8205 191.732C99.049 192.291 106.285 190.78 113.47 188.586C113.554 188.561 113.638 188.537 113.722 188.507C117.551 187.329 121.356 185.964 124.84 184.614C126.402 184.01 127.9 183.406 129.304 182.828C135.583 180.235 139.985 178.085 139.985 178.085Z" fill="white"/>
<path opacity="0.35" d="M42.1821 208.083C48.0023 216.406 61.4308 232.966 83.8079 237.53C97.8248 240.386 110.108 238.288 118.921 235.446C127.865 232.563 133.241 228.918 133.241 228.918L133.636 211.417C133.636 211.417 127.541 205.567 121.865 207.953C115.045 210.818 117.231 220.559 107.49 223.268C80.4107 230.799 58.4129 217.039 51.3345 210.998C41.5146 202.619 38.9529 197.341 37.5712 195.163C34.7115 190.657 32.503 187.115 31.2579 183.944C29.989 189.309 32.6981 194.518 42.1821 208.083Z" fill="#00227B"/>
<path d="M97.3145 240.854C92.6419 240.854 87.9887 240.386 83.4158 239.453C73.3563 237.401 63.9709 232.781 55.5218 225.721C50.0841 221.177 45.0527 215.619 40.5686 209.206C35.0963 201.378 31.6178 196.001 30.0313 191.681C28.511 187.542 28.6616 184.183 30.5493 180.086C32.4078 176.052 35.2176 174.196 36.9157 173.401C37.1931 171.326 38.2735 168.636 41.0975 167.373C49.1207 163.783 58.3794 169.338 62.9621 172.758C63.0065 172.526 63.0563 172.288 63.1094 172.047C63.8691 168.654 65.1803 166.351 67.0062 165.204C68.1278 164.499 69.9992 163.889 72.5512 164.987C75.14 166.1 77.0288 169.381 78.327 175.013C78.9913 177.9 79.3109 180.609 79.4312 181.809C80.8248 183.38 86.2712 188.949 94.0387 189.779C108.218 191.293 138.814 176.472 139.121 176.322C139.774 176.003 140.55 176.068 141.139 176.491C141.729 176.913 142.037 177.625 141.943 178.342L135.201 229.175C135.127 229.73 134.82 230.227 134.356 230.541C134.13 230.694 128.723 234.324 119.732 237.25C114.465 238.964 109.047 240.08 103.629 240.569C101.523 240.759 99.4168 240.854 97.3145 240.854ZM39.2715 176.684C39.0169 176.753 36.0076 177.651 34.1318 181.722C31.6059 187.205 32.2268 190.401 43.8033 206.961C54.6874 222.529 68.6577 232.434 84.2057 235.605C98.3722 238.494 110.677 236.064 118.505 233.516C125.141 231.357 129.718 228.78 131.41 227.752L137.561 181.385C134.348 182.846 129.092 185.142 123.194 187.343C110.065 192.244 100.112 194.376 93.6182 193.683C82.9043 192.54 76.2464 184.165 75.9679 183.809C75.7306 183.504 75.5876 183.137 75.5583 182.753C75.5561 182.721 75.2885 179.37 74.4736 175.849C73.1006 169.914 71.4578 168.792 70.9875 168.59C69.8107 168.084 69.3024 168.403 69.1106 168.522C67.4538 169.561 66.5565 173.876 66.4481 176.608C66.4178 177.374 65.941 178.054 65.229 178.346C64.516 178.639 63.6989 178.492 63.1344 177.969C63.0173 177.861 51.2631 167.128 42.7121 170.954C40.742 171.836 40.7778 174.495 40.7832 174.686C40.8417 175.656 40.224 176.483 39.2715 176.684Z" fill="#00227B"/>
<path d="M66.1023 176.532C66.1478 177.083 66.0654 177.585 65.9549 178.02C65.8996 178.245 65.8314 178.439 65.762 178.639C65.6916 178.825 65.6146 179.015 65.5388 179.185C65.2278 179.882 64.8919 180.459 64.5722 181.02C64.2514 181.576 63.9426 182.106 63.6554 182.637L63.4452 183.037C63.3791 183.171 63.3087 183.303 63.2447 183.438L63.0583 183.844L62.8806 184.254L62.7192 184.671L62.5696 185.094C62.5187 185.235 62.4808 185.38 62.4353 185.524C62.3876 185.667 62.3518 185.814 62.3128 185.96C62.1633 186.547 62.0343 187.151 61.9595 187.774C61.8783 188.396 61.8262 189.033 61.8111 189.682C61.7948 190.008 61.8013 190.334 61.7981 190.666C61.7927 190.833 61.8067 190.997 61.8078 191.164C61.8111 191.331 61.8165 191.499 61.8154 191.668V191.68C61.8154 191.81 61.7092 191.916 61.577 191.916C61.4849 191.916 61.4058 191.864 61.3668 191.788C61.0504 191.177 60.7643 190.542 60.5432 189.88C60.3102 189.219 60.1434 188.53 60.0209 187.826C59.7803 186.416 59.7858 184.924 60.0502 183.467L60.1596 182.923C60.2019 182.744 60.2485 182.566 60.2929 182.386C60.3406 182.208 60.3937 182.033 60.4435 181.855C60.4955 181.679 60.5573 181.507 60.6147 181.334C60.8521 180.643 61.1457 179.987 61.4481 179.371C61.7493 178.757 62.0701 178.178 62.3301 177.675C62.6043 177.165 62.7593 176.752 62.8503 176.529L63.041 176.061C63.3726 175.251 64.3013 174.861 65.1151 175.191C65.6905 175.427 66.0535 175.956 66.1023 176.532Z" fill="#00227B"/>
<path d="M81.6432 238.878C81.1458 238.878 80.6657 238.604 80.4295 238.13C80.0957 237.463 80.3688 236.654 81.0385 236.321C86.5033 233.613 90.2375 225.162 91.8348 211.882C93.0734 201.589 92.5587 192.017 92.5533 191.922C92.5121 191.178 93.0832 190.541 93.8298 190.499C94.5732 190.457 95.2158 191.027 95.2581 191.771C95.2635 191.868 95.7912 201.644 94.5288 212.166C93.7821 218.393 92.563 223.676 90.9051 227.869C88.7595 233.296 85.8455 236.953 82.2457 238.737C82.0517 238.833 81.8458 238.878 81.6432 238.878Z" fill="#00227B"/>
<g opacity="0.35">
<g opacity="0.35">
<g opacity="0.35">
<g opacity="0.35">
<path opacity="0.35" d="M256.466 325.72V325.444C254.299 325.537 256.466 325.72 256.466 325.72Z" fill="#00227B"/>
</g>
</g>
</g>
</g>
<path d="M229.119 292.575H98.9844C98.9844 292.575 99.7776 270.206 107.476 238.128C110.561 225.262 114.76 210.835 120.462 195.662C121.832 192.02 123.292 188.334 124.839 184.612C129.166 174.23 134.212 163.598 140.098 152.966H188.007C192.871 161.757 197.163 170.544 200.948 179.197C203.397 184.794 205.635 190.331 207.676 195.769C216.581 219.478 221.811 241.361 224.871 258.301C228.645 279.199 229.119 292.575 229.119 292.575Z" fill="white"/>
<path d="M211.256 212.452C213.771 215.249 214.921 218.504 215.983 221.773C216.516 223.408 217.041 225.047 217.543 226.693C217.794 227.515 218.052 228.336 218.277 229.166C218.507 229.994 218.732 230.825 218.957 231.655L219.616 234.15C219.833 234.982 220.052 235.813 220.255 236.649L221.453 241.668C221.648 242.506 221.861 243.338 222.052 244.176L222.623 246.691L223.209 249.203C223.407 250.039 223.61 250.875 223.795 251.714L224.924 256.747C225.118 257.585 225.285 258.429 225.463 259.269L225.992 261.794L226.257 263.056L226.389 263.687L226.512 264.32L227.008 266.851C227.172 267.695 227.342 268.538 227.521 269.378C227.692 270.221 227.865 271.064 228.045 271.906C228.799 275.266 229.349 278.669 229.578 282.116C229.607 282.547 229.641 282.977 229.661 283.409L229.717 284.706C229.745 285.571 229.769 286.436 229.756 287.307C229.75 288.176 229.731 289.046 229.674 289.919C229.623 290.792 229.551 291.665 229.419 292.545C229.394 292.714 229.234 292.831 229.064 292.806C228.948 292.789 228.857 292.71 228.818 292.608L228.817 292.604C228.195 290.958 227.687 289.305 227.207 287.651C226.971 286.824 226.743 285.995 226.523 285.168L226.207 283.923C226.107 283.508 226.004 283.093 225.9 282.678C225.497 281.017 225.142 279.351 224.822 277.678C224.668 276.841 224.528 276.001 224.4 275.159C224.263 274.318 224.136 273.476 224.005 272.635C223.877 271.792 223.743 270.951 223.606 270.11C223.461 269.27 223.299 268.434 223.136 267.597L222.645 265.088L222.522 264.461L222.391 263.835L222.129 262.584L221.605 260.081C221.427 259.248 221.261 258.411 221.069 257.58L219.949 252.59C219.769 251.756 219.559 250.93 219.36 250.101L218.748 247.617L218.121 245.138C218.019 244.725 217.903 244.313 217.792 243.902L217.455 242.669L216.102 237.736C215.634 236.097 215.155 234.46 214.698 232.818C214.471 231.996 214.243 231.175 214.022 230.351L213.858 229.734L213.683 229.119L213.34 227.887C212.881 226.246 212.447 224.597 212.019 222.945L211.704 221.704C211.599 221.291 211.483 220.881 211.373 220.468C211.153 219.644 210.969 218.808 210.83 217.959C210.692 217.108 210.596 216.245 210.559 215.362C210.539 214.921 210.537 214.474 210.554 214.02C210.571 213.567 210.6 213.108 210.68 212.635L210.684 212.616C210.714 212.437 210.884 212.316 211.064 212.346C211.141 212.36 211.208 212.399 211.256 212.452Z" fill="#00227B"/>
<path d="M98.6845 292.565C98.4841 292.12 98.3464 291.679 98.2175 291.235C98.0885 290.791 97.9921 290.351 97.9065 289.909C97.7331 289.024 97.6399 288.144 97.5879 287.267C97.5641 286.827 97.5478 286.389 97.5489 285.952C97.55 285.515 97.5673 285.08 97.5879 284.645L97.6616 283.34C97.6843 282.905 97.7114 282.47 97.7472 282.036C97.8826 280.301 98.0148 278.563 98.2186 276.836C98.3107 275.97 98.4136 275.107 98.5155 274.243C98.5653 273.811 98.6325 273.381 98.691 272.949L98.8742 271.658L99.2567 269.077C99.3911 268.218 99.5471 267.363 99.6934 266.506C99.9925 264.793 100.274 263.078 100.616 261.374C100.947 259.667 101.251 257.957 101.59 256.254C101.934 254.552 102.27 252.847 102.602 251.142C102.686 250.716 102.762 250.288 102.854 249.864L103.127 248.591L103.673 246.043L104.218 243.496C104.264 243.284 104.306 243.071 104.355 242.859L104.505 242.226L104.804 240.958L105.999 235.886C106.096 235.463 106.204 235.042 106.311 234.621C106.415 234.199 106.521 233.778 106.621 233.356C106.823 232.511 107.022 231.666 107.214 230.819C107.41 229.972 107.602 229.124 107.804 228.279C107.999 227.432 108.244 226.598 108.489 225.764C108.74 224.932 109.005 224.104 109.284 223.28C109.563 222.456 109.86 221.637 110.16 220.82L110.624 219.598C110.702 219.395 110.789 219.194 110.873 218.993C110.959 218.792 111.041 218.59 111.13 218.389C111.48 217.587 111.834 216.789 112.212 215.997C112.584 215.204 112.973 214.417 113.382 213.638C113.79 212.859 114.214 212.085 114.684 211.327C114.774 211.182 114.966 211.136 115.113 211.227C115.212 211.288 115.265 211.397 115.26 211.508V211.512C115.065 215.074 114.395 218.463 113.734 221.851C113.564 222.696 113.391 223.54 113.2 224.379C113.008 225.218 112.802 226.052 112.583 226.882C112.126 228.538 111.667 230.193 111.188 231.844C110.948 232.67 110.715 233.496 110.484 234.324C110.367 234.738 110.258 235.153 110.146 235.568C110.037 235.983 109.924 236.398 109.831 236.817L108.649 241.835L108.353 243.089L108.205 243.716C108.157 243.926 108.114 244.136 108.069 244.346L107.529 246.866L106.99 249.386L106.72 250.647C106.63 251.066 106.554 251.49 106.47 251.91C105.086 258.644 104.155 265.459 103.25 272.26L102.899 274.809C102.789 275.66 102.68 276.51 102.561 277.36L101.863 282.457C101.736 283.307 101.634 284.156 101.519 285.005C101.46 285.43 101.397 285.855 101.318 286.278C101.24 286.701 101.163 287.124 101.067 287.546C100.878 288.39 100.643 289.232 100.364 290.072C100.225 290.492 100.06 290.912 99.8895 291.331C99.7151 291.75 99.5254 292.171 99.2914 292.589L99.2892 292.593C99.1982 292.755 98.9934 292.813 98.8308 292.722C98.7626 292.684 98.7138 292.627 98.6845 292.565Z" fill="#00227B"/>
<path d="M136.472 264.353C129.05 267.346 117.564 266.72 109.733 265.776C105.037 265.21 101.739 260.893 102.432 256.231C103.064 251.978 106.823 248.885 111.134 249.085C118.459 249.428 129.446 249.587 136.404 248.05" fill="white"/>
<g opacity="0.35">
<g opacity="0.35">
<g opacity="0.35">
<g opacity="0.35">
<path opacity="0.35" d="M136.473 264.352C129.049 267.349 117.563 266.717 109.732 265.779C105.036 265.212 101.739 260.893 102.432 256.235C102.569 255.284 102.87 254.391 103.295 253.576C104.532 255.928 106.874 257.661 109.732 258.007C117.549 258.951 129.016 259.577 136.441 256.599L136.473 264.352Z" fill="#00227B"/>
</g>
</g>
</g>
</g>
<path d="M121.717 268.519C117.422 268.519 113.153 268.166 109.497 267.726C106.696 267.388 104.212 265.972 102.499 263.737C100.784 261.499 100.068 258.732 100.482 255.945C100.859 253.405 102.161 251.107 104.149 249.474C106.138 247.839 108.652 247.005 111.227 247.126C122.017 247.629 130.806 247.277 135.976 246.135C137.014 245.906 139.594 245.898 141.116 250.773C142.662 255.726 142.491 264.046 137.213 266.175C132.86 267.928 127.268 268.519 121.717 268.519ZM110.735 251.039C107.556 251.039 104.853 253.346 104.383 256.518C104.126 258.247 104.57 259.965 105.634 261.354C106.695 262.739 108.235 263.617 109.971 263.826C121.168 265.175 130.319 264.716 135.734 262.533C137.342 261.884 137.803 259.289 137.928 258.203C138.361 254.404 137.201 250.894 136.474 250.044C129.417 251.522 118.783 251.409 111.044 251.047C110.94 251.042 110.837 251.039 110.735 251.039Z" fill="#00227B"/>
<path d="M193.236 264.353C200.658 267.346 212.145 266.72 219.975 265.776C224.672 265.21 227.969 260.893 227.277 256.231C226.645 251.978 222.886 248.885 218.574 249.085C211.25 249.428 200.263 249.587 193.305 248.05" fill="white"/>
<g opacity="0.35">
<g opacity="0.35">
<g opacity="0.35">
<g opacity="0.35">
<path opacity="0.35" d="M219.977 265.779C212.147 266.717 200.661 267.349 193.236 264.352L193.269 256.527C200.693 259.505 212.16 258.879 219.977 257.934C222.823 257.595 225.152 255.875 226.395 253.536C226.832 254.357 227.14 255.263 227.284 256.233C227.971 260.893 224.675 265.212 219.977 265.779Z" fill="#00227B"/>
</g>
</g>
</g>
</g>
<path d="M208.003 268.519C202.451 268.519 196.861 267.929 192.507 266.174C187.228 264.046 187.057 255.725 188.603 250.772C190.125 245.898 192.705 245.906 193.743 246.134C198.914 247.277 207.704 247.629 218.492 247.125C221.069 247.005 223.581 247.84 225.571 249.474C227.558 251.107 228.861 253.405 229.238 255.944C229.652 258.731 228.934 261.498 227.22 263.737C225.508 265.971 223.023 267.387 220.223 267.725C216.567 268.165 212.296 268.519 208.003 268.519ZM193.247 250.045C192.52 250.894 191.359 254.404 191.792 258.203C191.916 259.289 192.378 261.885 193.987 262.534C199.402 264.717 208.552 265.177 219.749 263.827C221.484 263.617 223.025 262.74 224.086 261.355C225.15 259.966 225.595 258.249 225.338 256.519C224.852 253.245 221.989 250.894 218.678 251.047C210.936 251.409 200.303 251.521 193.247 250.045Z" fill="#00227B"/>
<path d="M196.111 242.663V268.789C196.111 273.636 192.127 277.603 187.261 277.603H138.953C134.093 277.603 130.109 273.636 130.109 268.789V242.663C130.109 237.816 134.093 233.854 138.953 233.854H187.261C190.126 233.854 192.683 235.23 194.305 237.346C195.437 238.825 196.111 240.669 196.111 242.663Z" fill="white"/>
<g opacity="0.35">
<g opacity="0.35">
<g opacity="0.35">
<g opacity="0.35">
<path opacity="0.35" d="M196.106 242.663V268.789C196.106 273.636 192.124 277.601 187.258 277.601H138.951C134.085 277.601 130.103 273.636 130.103 268.789V259.017C137.358 266.384 151.627 271.009 164.713 271.078C168.917 271.101 172.309 267.788 172.609 263.61C172.612 263.568 172.616 263.526 172.619 263.485C172.941 259.82 175.972 256.852 179.656 256.587C183.852 256.286 187.394 259.373 187.809 263.385C194.143 255.596 192.288 242.06 194.302 237.346C195.435 238.827 196.106 240.668 196.106 242.663Z" fill="#00227B"/>
</g>
</g>
</g>
</g>
<path d="M187.263 279.566H138.955C132.99 279.566 128.138 274.733 128.138 268.792V242.663C128.138 236.723 132.99 231.89 138.955 231.89H187.263C193.228 231.89 198.08 236.723 198.08 242.663V268.792C198.08 274.733 193.228 279.566 187.263 279.566ZM138.955 235.816C135.164 235.816 132.08 238.888 132.08 242.663V268.792C132.08 272.568 135.164 275.64 138.955 275.64H187.263C191.054 275.64 194.138 272.568 194.138 268.792V242.663C194.138 238.888 191.054 235.816 187.263 235.816H138.955Z" fill="#00227B"/>
<path d="M180.226 263.326C184.439 263.326 187.854 259.924 187.854 255.727C187.854 251.531 184.439 248.129 180.226 248.129C176.012 248.129 172.597 251.531 172.597 255.727C172.597 259.924 176.012 263.326 180.226 263.326Z" fill="#22A7F0"/>
<g opacity="0.7">
<g opacity="0.7">
<g opacity="0.7">
<g opacity="0.7">
<path opacity="0.7" d="M187.848 255.727C187.848 256.247 187.798 256.752 187.699 257.246C186.995 253.771 183.913 251.157 180.221 251.157C176.524 251.157 173.442 253.771 172.737 257.246C172.639 256.752 172.589 256.248 172.589 255.727C172.589 251.529 176.006 248.131 180.221 248.131C184.43 248.131 187.848 251.529 187.848 255.727Z" fill="white"/>
</g>
</g>
</g>
</g>
<g opacity="0.35">
<g opacity="0.35">
<g opacity="0.35">
<g opacity="0.35">
<path opacity="0.35" d="M187.849 255.726C187.849 259.921 184.435 263.322 180.223 263.322C176.011 263.322 172.596 259.921 172.596 255.726C172.596 254.756 172.779 253.83 173.119 252.977C174.218 255.811 176.986 257.818 180.224 257.818C183.462 257.818 186.228 255.811 187.328 252.977C187.666 253.83 187.849 254.755 187.849 255.726Z" fill="#00227B"/>
</g>
</g>
</g>
</g>
<path d="M180.225 264.798C175.203 264.798 171.118 260.729 171.118 255.727C171.118 250.726 175.203 246.657 180.225 246.657C185.247 246.657 189.332 250.726 189.332 255.727C189.332 260.729 185.247 264.798 180.225 264.798ZM180.225 249.602C176.834 249.602 174.075 252.35 174.075 255.727C174.075 259.104 176.834 261.852 180.225 261.852C183.616 261.852 186.375 259.104 186.375 255.727C186.375 252.35 183.616 249.602 180.225 249.602Z" fill="#00227B"/>
<path d="M158.607 279.075C157.789 279.075 157.128 278.416 157.128 277.603V259.708L147.468 252.464V233.853C147.468 233.039 148.13 232.381 148.946 232.381C149.762 232.381 150.424 233.04 150.424 233.853V250.994L160.085 258.238V277.603C160.085 278.416 159.422 279.075 158.607 279.075Z" fill="#00227B"/>
<path d="M164.056 291.67C172.602 291.67 180.819 288.512 187.238 282.892C196.128 275.108 211.094 265.825 227.613 271.779C234.242 274.167 238.758 278.548 241.84 283.395C249.777 265.079 266.426 263.981 273.632 274.362C273.632 274.362 261.519 331.92 257.571 333.201C251.916 335.036 238.327 333.106 238.327 333.106C238.327 333.106 191.052 326.731 164.056 326.731C137.061 326.731 89.786 333.106 89.786 333.106C89.786 333.106 76.1971 335.035 70.5416 333.201C66.5939 331.92 54.481 274.362 54.481 274.362C61.6861 263.98 78.3362 265.079 86.2728 283.395C89.3536 278.547 93.8713 274.167 100.5 271.779C117.019 265.825 131.985 275.108 140.875 282.892C147.294 288.511 155.511 291.67 164.056 291.67Z" fill="white"/>
<g opacity="0.35">
<path d="M273.63 274.36C273.63 274.36 261.516 331.919 257.568 333.2C251.915 335.036 238.323 333.108 238.323 333.108C238.323 333.108 191.05 326.731 164.052 326.731C137.06 326.731 89.7819 333.108 89.7819 333.108C89.7819 333.108 76.1942 335.036 70.5419 333.2C66.5942 331.919 54.4802 274.36 54.4802 274.36C55.6679 272.651 57.107 271.252 58.7238 270.192C62.6075 287.069 68.1167 309.104 70.5419 309.889C76.1953 311.72 89.7819 309.791 89.7819 309.791C89.7819 309.791 137.06 297.038 164.052 297.038C191.05 297.038 238.323 309.791 238.323 309.791C238.323 309.791 251.915 311.72 257.568 309.889C259.994 309.104 265.503 287.069 269.387 270.192C271.003 271.253 272.442 272.652 273.63 274.36Z" fill="#00227B"/>
</g>
<path d="M77.8252 335.949C74.8604 335.949 71.9638 335.728 69.9266 335.068C68.5373 334.616 67.3692 333.083 65.177 326.281C63.894 322.299 62.3541 316.755 60.6019 309.802C57.4463 297.284 54.3709 283.244 53.1952 277.79C52.5797 274.934 53.5192 271.98 55.6485 270.082C59.736 266.437 65.2149 265.034 70.6786 266.232C74.1224 266.988 77.473 268.778 80.3685 271.411C82.7666 273.592 84.8515 276.316 86.5897 279.538C90.1169 275.055 94.5577 271.831 99.8264 269.932C105.796 267.78 112.042 267.353 118.392 268.662C123.519 269.72 128.732 271.912 133.886 275.18C134.805 275.763 135.075 276.976 134.491 277.891C133.907 278.806 132.688 279.075 131.769 278.493C121.161 271.767 110.865 270.13 101.168 273.626C95.6988 275.596 91.2461 279.236 87.9356 284.446C87.5444 285.061 86.8422 285.41 86.1151 285.353C85.3869 285.296 84.7497 284.843 84.4593 284.174C81.1433 276.52 75.8118 271.38 69.8312 270.069C65.6202 269.146 61.4092 270.218 58.2785 273.01C57.2014 273.97 56.7311 275.486 57.0508 276.968C58.1604 282.117 61.0689 295.401 64.0988 307.538C65.7643 314.209 67.2402 319.637 68.4864 323.668C70.2311 329.314 71.1424 330.969 71.4664 331.431C75.9202 332.675 85.9374 331.671 89.5047 331.165C89.509 331.164 89.5134 331.164 89.5177 331.163C89.9912 331.099 137.235 324.77 164.053 324.77C190.872 324.77 238.114 331.099 238.588 331.163C238.592 331.164 238.597 331.164 238.602 331.165C242.17 331.671 252.186 332.675 256.64 331.431C256.958 330.978 257.845 329.37 259.531 323.955C260.748 320.05 262.188 314.787 263.814 308.314C266.711 296.77 269.489 284.21 270.886 277.752C271.345 275.635 270.548 273.466 268.858 272.225C265.632 269.856 261.633 269.149 257.601 270.234C251.823 271.79 246.868 276.74 243.647 284.175C243.358 284.843 242.721 285.297 241.991 285.355C241.262 285.412 240.562 285.062 240.171 284.447C236.86 279.238 232.409 275.597 226.939 273.627C217.156 270.101 206.773 271.795 196.074 278.663C195.158 279.25 193.939 278.988 193.349 278.076C192.759 277.165 193.023 275.949 193.938 275.361C199.124 272.033 204.37 269.792 209.533 268.701C215.946 267.345 222.254 267.761 228.281 269.933C233.55 271.832 237.99 275.057 241.519 279.54C245.222 272.684 250.482 268.082 256.573 266.443C261.715 265.058 267.045 266.013 271.199 269.063C274.135 271.22 275.526 274.954 274.742 278.579C273.262 285.421 270.327 298.679 267.308 310.58C265.597 317.329 264.093 322.706 262.839 326.561C260.7 333.137 259.552 334.625 258.179 335.07C252.184 337.015 238.739 335.151 238.054 335.054C237.313 334.954 190.528 328.698 164.054 328.698C137.575 328.698 90.7942 334.954 90.053 335.054C89.5979 335.115 83.5848 335.949 77.8252 335.949Z" fill="#00227B"/>
<path d="M254.06 333.201H257.571C261.693 333.201 265.43 330.793 267.109 327.043C272.364 315.321 281.947 289.563 272.971 273.845C272.71 273.386 272.431 272.945 272.135 272.522C272.135 272.522 263.518 264.715 257.327 275.759C251.544 286.076 239.407 330.189 254.06 333.201Z" fill="#AFAFB2"/>
<g opacity="0.7">
<g opacity="0.7">
<g opacity="0.7">
<g opacity="0.7">
<path opacity="0.7" d="M254.155 283.111C254.31 282.864 254.465 282.631 254.616 282.414C262.227 271.37 272.824 279.177 272.824 279.177C273.187 279.6 273.533 280.041 273.852 280.5C274.915 282.013 275.764 283.618 276.428 285.299C275.999 281.17 274.928 277.268 272.97 273.845C272.709 273.386 272.43 272.945 272.134 272.522C272.134 272.522 263.517 264.715 257.326 275.759C256.386 277.431 255.284 279.984 254.155 283.111Z" fill="white"/>
</g>
</g>
</g>
</g>
<path d="M276.38 286.477C276.291 286.477 276.201 286.47 276.11 286.454L254.572 282.873C253.687 282.726 253.089 281.892 253.236 281.009C253.383 280.127 254.222 279.532 255.106 279.678L276.645 283.26C277.53 283.406 278.128 284.241 277.981 285.124C277.849 285.917 277.161 286.477 276.38 286.477Z" fill="#00227B"/>
<path d="M276.241 298.067C276.168 298.067 276.095 298.063 276.022 298.052L250.826 294.678C249.936 294.56 249.312 293.745 249.431 292.859C249.551 291.973 250.369 291.351 251.259 291.47L276.455 294.843C277.345 294.962 277.969 295.777 277.85 296.663C277.74 297.477 277.042 298.067 276.241 298.067Z" fill="#00227B"/>
<path d="M274.023 309.42C273.957 309.42 273.891 309.416 273.824 309.408L248.246 306.29C247.356 306.181 246.722 305.374 246.83 304.486C246.94 303.599 247.749 302.967 248.641 303.076L274.218 306.194C275.109 306.303 275.743 307.11 275.634 307.997C275.534 308.819 274.833 309.42 274.023 309.42Z" fill="#00227B"/>
<path d="M269.959 321.8C269.91 321.8 269.861 321.798 269.811 321.794L246.944 319.739C246.05 319.659 245.391 318.871 245.471 317.981C245.551 317.09 246.342 316.433 247.236 316.514L270.103 318.569C270.997 318.649 271.657 319.437 271.576 320.327C271.5 321.168 270.79 321.8 269.959 321.8Z" fill="#00227B"/>
<g opacity="0.35">
<g opacity="0.35">
<g opacity="0.35">
<g opacity="0.35">
<path opacity="0.35" d="M254.06 333.201H257.571C261.693 333.201 265.43 330.793 267.109 327.043C268.468 324.005 270.12 320.031 271.666 315.528C269.558 319.012 265.275 321.221 260.574 321.221H256.388C250.433 320.194 248.192 314.376 248.103 306.751C246.09 319.622 246.642 331.676 254.06 333.201Z" fill="#00227B"/>
</g>
</g>
</g>
</g>
<path d="M257.564 334.819H254.053C253.942 334.819 253.833 334.808 253.725 334.786C250.887 334.202 248.742 332.369 247.35 329.337C244.067 322.19 245.662 309.738 247.579 300.551C249.922 289.324 253.539 279.183 255.902 274.969C258.073 271.094 260.81 268.863 264.032 268.34C268.976 267.537 273.051 271.169 273.223 271.323C273.313 271.404 273.393 271.496 273.462 271.594C273.786 272.056 274.095 272.545 274.38 273.045C278.483 280.229 279.353 290.056 276.968 302.251C275.028 312.165 271.34 321.564 268.588 327.702C266.651 332.026 262.326 334.819 257.564 334.819ZM254.23 331.581H257.564C261.042 331.581 264.205 329.541 265.618 326.384C268.301 320.399 271.894 311.247 273.775 301.633C276.009 290.22 275.26 281.139 271.553 274.645C271.351 274.291 271.135 273.946 270.911 273.616C270.302 273.12 267.536 271.041 264.537 271.539C262.35 271.903 260.4 273.588 258.741 276.548C256.554 280.449 253.015 290.418 250.763 301.21C248.194 313.526 248.031 323.037 250.307 327.991C251.23 330.002 252.514 331.179 254.23 331.581Z" fill="#00227B"/>
<path d="M74.0545 333.201H70.5435C66.4213 333.201 62.6838 330.793 61.0053 327.043C55.7496 315.321 46.167 289.563 55.1428 273.845C55.4039 273.386 55.6835 272.945 55.9793 272.522C55.9793 272.522 64.5964 264.715 70.7873 275.759C76.5696 286.076 88.7064 330.189 74.0545 333.201Z" fill="#AFAFB2"/>
<g opacity="0.7">
<g opacity="0.7">
<g opacity="0.7">
<g opacity="0.7">
<path opacity="0.7" d="M73.9504 283.111C73.7954 282.864 73.6405 282.631 73.4898 282.414C65.8783 271.37 55.2814 279.177 55.2814 279.177C54.9184 279.6 54.5727 280.041 54.2541 280.5C53.1911 282.013 52.3415 283.618 51.6772 285.299C52.1064 281.17 53.1781 277.268 55.1351 273.845C55.3963 273.386 55.6759 272.945 55.9717 272.522C55.9717 272.522 64.5888 264.715 70.7796 275.759C71.7181 277.431 72.8212 279.984 73.9504 283.111Z" fill="white"/>
</g>
</g>
</g>
</g>
<path d="M51.7272 286.477C50.947 286.477 50.2589 285.916 50.1256 285.125C49.9782 284.243 50.5753 283.409 51.4617 283.261L73.0002 279.679C73.8855 279.533 74.7231 280.127 74.8705 281.01C75.0179 281.892 74.4208 282.726 73.5344 282.874L51.996 286.455C51.906 286.471 51.8161 286.477 51.7272 286.477Z" fill="#00227B"/>
<path d="M51.8657 298.068C51.0638 298.068 50.366 297.477 50.2565 296.665C50.1373 295.778 50.7615 294.964 51.6512 294.845L76.848 291.47C77.7387 291.35 78.5558 291.973 78.6761 292.859C78.7953 293.745 78.1711 294.56 77.2814 294.679L52.0846 298.054C52.0109 298.063 51.9383 298.068 51.8657 298.068Z" fill="#00227B"/>
<path d="M54.088 309.42C53.2785 309.42 52.5774 308.819 52.4766 307.997C52.3672 307.11 53.0011 306.303 53.893 306.194L79.4701 303.076C80.3609 302.968 81.1714 303.598 81.2809 304.486C81.3903 305.373 80.7564 306.181 79.8646 306.29L54.2874 309.408C54.2202 309.416 54.153 309.42 54.088 309.42Z" fill="#00227B"/>
<path d="M58.1427 321.8C57.3105 321.8 56.6018 321.168 56.5259 320.327C56.4457 319.437 57.1046 318.65 57.9986 318.569L80.8655 316.514C81.7606 316.434 82.5495 317.09 82.6308 317.981C82.711 318.871 82.0521 319.658 81.1581 319.739L58.2911 321.794C58.2413 321.798 58.1914 321.8 58.1427 321.8Z" fill="#00227B"/>
<g opacity="0.35">
<g opacity="0.35">
<g opacity="0.35">
<g opacity="0.35">
<path opacity="0.35" d="M74.051 333.201H70.54C66.4178 333.201 62.6803 330.793 61.0018 327.043C59.6429 324.005 57.9903 320.031 56.4451 315.528C58.5527 319.012 62.8353 321.221 67.5372 321.221H71.7222C77.6779 320.194 79.9189 314.376 80.0077 306.751C82.0212 319.622 81.4674 331.676 74.051 333.201Z" fill="#00227B"/>
</g>
</g>
</g>
</g>
<path d="M74.0483 334.819H70.5373C65.7769 334.819 61.4499 332.026 59.5146 327.702C56.7632 321.566 53.0745 312.167 51.1348 302.252C48.7497 290.057 49.6198 280.23 53.7225 273.045C54.0075 272.545 54.3163 272.057 54.6393 271.596C54.7086 271.496 54.7888 271.406 54.8787 271.325C55.05 271.169 59.1255 267.538 64.0691 268.341C67.2918 268.865 70.028 271.096 72.1996 274.971C74.562 279.184 78.1792 289.325 80.522 300.552C82.4389 309.739 84.0341 322.192 80.7517 329.339C79.3592 332.371 77.2147 334.203 74.3767 334.787C74.2683 334.809 74.1578 334.819 74.0483 334.819ZM57.1891 273.617C56.9647 273.946 56.7502 274.292 56.5486 274.645C52.8404 281.14 52.0916 290.219 54.325 301.634C56.2062 311.248 59.7985 320.4 62.4826 326.385C63.8968 329.543 67.0578 331.583 70.5362 331.583H73.8706C75.586 331.18 76.8712 330.004 77.7945 327.992C80.069 323.038 79.9076 313.527 77.3382 301.211C75.0864 290.419 71.5473 280.449 69.3605 276.548C67.7014 273.588 65.7509 271.903 63.5641 271.539C60.5711 271.043 57.8056 273.115 57.1891 273.617Z" fill="#00227B"/>
<path d="M113.679 331.723C113.449 331.723 113.215 331.669 112.996 331.555C112.272 331.178 111.992 330.287 112.371 329.566C118.545 317.818 118.636 304.605 112.642 290.297C108.121 279.505 101.648 272.12 101.583 272.047C101.043 271.437 101.102 270.507 101.714 269.968C102.326 269.43 103.26 269.488 103.8 270.097C104.076 270.409 110.62 277.861 115.336 289.079C118.119 295.699 119.671 302.249 119.95 308.549C120.302 316.47 118.633 324 114.991 330.932C114.726 331.436 114.211 331.723 113.679 331.723Z" fill="#00227B"/>
<path d="M215.028 331.723C214.494 331.723 213.981 331.436 213.716 330.933C210.074 324.001 208.405 316.471 208.756 308.55C209.036 302.25 210.588 295.7 213.371 289.08C218.087 277.862 224.631 270.409 224.907 270.098C225.448 269.489 226.382 269.43 226.994 269.969C227.606 270.506 227.665 271.437 227.124 272.047C227.059 272.12 220.585 279.505 216.065 290.297C210.071 304.606 210.162 317.818 216.335 329.566C216.714 330.287 216.434 331.177 215.711 331.554C215.492 331.669 215.258 331.723 215.028 331.723Z" fill="#00227B"/>
<g opacity="0.35">
<path d="M213.046 190.248C211.34 192.192 209.547 194.038 207.679 195.771C203.243 199.884 198.383 203.385 193.184 206.159C184.401 210.851 174.658 213.483 164.397 213.531C154.372 213.576 144.831 211.15 136.182 206.742C130.519 203.851 125.241 200.115 120.465 195.663C118.09 193.444 115.837 191.054 113.723 188.506C117.552 187.329 121.357 185.964 124.841 184.613C129.168 174.231 134.215 163.599 140.1 152.967H188.009C192.873 161.758 197.165 170.544 200.95 179.198C204.559 181.294 208.714 185.241 213.046 190.248Z" fill="#00227B"/>
</g>
<path d="M237.218 142.844C236.384 142.934 235.635 142.333 235.545 141.502L230.869 98.163C230.779 97.3319 231.383 96.5861 232.217 96.4965C240.97 95.5597 248.827 101.867 249.768 110.585L251.364 125.364C252.305 134.081 245.971 141.907 237.218 142.844Z" fill="white"/>
<path d="M237.05 143.226C236.62 143.226 236.205 143.082 235.866 142.809C235.472 142.492 235.226 142.042 235.171 141.542L230.495 98.2028C230.441 97.702 230.587 97.2098 230.904 96.818C231.222 96.4262 231.673 96.1801 232.176 96.1262C241.122 95.1688 249.179 101.637 250.14 110.546L251.734 125.325C252.2 129.64 250.95 133.877 248.215 137.257C245.481 140.636 241.589 142.752 237.256 143.217L237.216 142.845L237.256 143.217C237.188 143.223 237.119 143.226 237.05 143.226ZM233.931 96.777C233.377 96.777 232.819 96.8061 232.256 96.8666C231.952 96.899 231.679 97.0479 231.487 97.2843C231.295 97.5217 231.207 97.8185 231.24 98.1218L235.916 141.461C235.948 141.764 236.098 142.036 236.336 142.227C236.575 142.418 236.873 142.505 237.177 142.473C241.311 142.03 245.024 140.011 247.633 136.787C250.243 133.563 251.435 129.52 250.99 125.403L249.396 110.624C248.538 102.685 241.774 96.777 233.931 96.777Z" fill="#00227B"/>
<g opacity="0.35">
<g opacity="0.35">
<g opacity="0.35">
<g opacity="0.35">
<path opacity="0.35" d="M250.613 118.434L251.363 125.365C252.303 134.079 245.97 141.908 237.216 142.848C236.382 142.938 235.633 142.332 235.543 141.502L234.296 129.981C234.586 130.481 235.154 130.787 235.766 130.727L236.798 130.614C243.714 129.874 249.123 124.829 250.613 118.434Z" fill="#00227B"/>
</g>
</g>
</g>
</g>
<path d="M237.051 144.93C236.232 144.93 235.443 144.654 234.796 144.135C234.047 143.534 233.577 142.677 233.474 141.724L228.798 98.385C228.695 97.4319 228.972 96.4951 229.575 95.7482C230.179 95.0013 231.039 94.534 231.996 94.4314C241.877 93.3737 250.781 100.521 251.843 110.363L253.437 125.142C253.952 129.91 252.571 134.592 249.55 138.326C246.529 142.059 242.229 144.398 237.442 144.91C237.313 144.923 237.182 144.93 237.051 144.93ZM236.999 140.779H236.998C236.998 140.779 236.998 140.779 236.999 140.779ZM233.007 98.5123L237.56 140.709C241.013 140.2 244.102 138.443 246.306 135.719C248.628 132.85 249.689 129.251 249.293 125.586L247.699 110.807C246.903 103.429 240.375 98.0201 233.007 98.5123Z" fill="#00227B"/>
<path d="M88.5921 111.869C89.4265 111.78 90.1753 112.381 90.2653 113.212L94.9412 156.551C95.0311 157.382 94.4275 158.127 93.5931 158.217C84.8406 159.154 76.9831 152.846 76.0425 144.129L74.4484 129.35C73.5057 120.632 79.8396 112.806 88.5921 111.869Z" fill="white"/>
<path d="M91.8769 158.682C83.6564 158.683 76.5661 152.49 75.6688 144.169L74.0748 129.389C73.1136 120.481 79.6079 112.455 88.5522 111.498L88.5923 111.869L88.5522 111.498C89.5893 111.387 90.5256 112.138 90.6372 113.172L95.3131 156.51C95.4247 157.544 94.6705 158.476 93.6324 158.587C93.0439 158.651 92.4566 158.682 91.8769 158.682ZM88.7549 112.233C88.7137 112.233 88.6736 112.235 88.6314 112.239C80.0977 113.152 73.9014 120.81 74.8193 129.31L76.4133 144.089C77.3301 152.588 85.0174 158.76 93.5522 157.847C94.1796 157.78 94.6358 157.216 94.5686 156.591L89.8927 113.253C89.8299 112.668 89.3314 112.233 88.7549 112.233Z" fill="#00227B"/>
<g opacity="0.35">
<g opacity="0.35">
<g opacity="0.35">
<g opacity="0.35">
<path opacity="0.35" d="M93.6477 144.527L94.9437 156.551C95.0347 157.382 94.4257 158.128 93.5924 158.217C88.9978 158.707 84.6459 157.204 81.4144 154.4C78.4962 151.867 76.4915 148.269 76.0439 144.131L75.3721 137.903C78.4464 143.101 84.3923 146.314 90.8096 145.629L92.3971 145.459C92.9758 145.396 93.4342 145.024 93.6477 144.527Z" fill="#00227B"/>
</g>
</g>
</g>
</g>
<path d="M91.872 160.385C82.7889 160.387 74.9564 153.545 73.9648 144.35L72.3708 129.571C71.3088 119.729 78.4847 110.861 88.3664 109.803C90.3408 109.592 92.1223 111.021 92.3347 112.989L97.0106 156.328C97.223 158.297 95.7883 160.069 93.8117 160.281C93.1605 160.352 92.5124 160.385 91.872 160.385ZM88.2494 114.005C80.9457 115.085 75.7203 121.75 76.5157 129.129L78.1098 143.908C78.9062 151.286 85.4341 156.693 92.8018 156.202L88.2494 114.005Z" fill="#00227B"/>
<path d="M162.912 201.634C204.099 201.634 237.488 168.379 237.488 127.356C237.488 86.3331 204.099 53.0776 162.912 53.0776C121.725 53.0776 88.3359 86.3331 88.3359 127.356C88.3359 168.379 121.725 201.634 162.912 201.634Z" fill="white"/>
<path d="M162.834 202.009C153.69 202.009 144.758 200.376 136.241 197.143C127.186 193.707 118.981 188.614 111.854 182.011C104.727 175.407 99.038 167.623 94.9429 158.875C90.7037 149.817 88.3695 140.119 88.0044 130.048C87.6392 119.977 89.2657 110.136 92.8385 100.797C96.2888 91.7775 101.401 83.606 108.031 76.5074C114.661 69.4087 122.478 63.7413 131.262 59.6625C140.356 55.4403 150.094 53.1154 160.205 52.7517C170.317 52.388 180.197 54.008 189.573 57.5665C198.629 61.0031 206.833 66.0952 213.96 72.6985C221.087 79.3028 226.776 87.0868 230.871 95.8346C235.111 104.892 237.445 114.591 237.81 124.662C238.175 134.733 236.549 144.574 232.976 153.912C229.526 162.932 224.413 171.104 217.782 178.202C211.151 185.301 203.336 190.967 194.553 195.046C185.459 199.268 175.722 201.593 165.61 201.957C164.682 201.991 163.756 202.009 162.834 202.009ZM162.941 53.4489C162.04 53.4489 161.14 53.4651 160.231 53.4975C119.343 54.9675 87.2783 89.2951 88.7531 130.02C89.4673 149.747 97.8525 168.018 112.363 181.464C126.203 194.288 144.036 201.261 162.839 201.262C163.752 201.262 164.664 201.246 165.581 201.212C185.388 200.501 203.732 192.149 217.232 177.696C230.732 163.243 237.773 144.419 237.059 124.691C235.618 84.871 202.63 53.4489 162.941 53.4489Z" fill="#00227B"/>
<g opacity="0.35">
<g opacity="0.35">
<g opacity="0.35">
<g opacity="0.35">
<path opacity="0.35" d="M236.351 114.428C236.947 117.767 237.313 121.189 237.439 124.678C238.919 165.674 206.757 200.106 165.597 201.588C124.437 203.061 89.8672 171.028 88.3794 130.034C88.336 128.855 88.3208 127.674 88.3349 126.51C94.6677 162.464 126.805 189.166 164.465 187.813C204.441 186.375 235.924 153.856 236.351 114.428Z" fill="#00227B"/>
</g>
</g>
</g>
</g>
<path d="M162.842 203.712C153.49 203.712 144.353 202.041 135.642 198.735C126.38 195.22 117.987 190.012 110.699 183.258C103.41 176.504 97.5911 168.542 93.4029 159.594C89.0661 150.329 86.6789 140.408 86.3061 130.108C85.9333 119.809 87.5967 109.742 91.2518 100.19C94.7812 90.965 100.01 82.6058 106.791 75.3463C113.573 68.0869 121.564 62.2899 130.549 58.1194C139.851 53.8 149.812 51.4223 160.153 51.051C170.495 50.6797 180.601 52.3365 190.191 55.977C199.453 59.4923 207.846 64.7 215.135 71.4543C222.423 78.2087 228.242 86.1707 232.431 95.1182C236.767 104.383 239.155 114.304 239.527 124.604C239.9 134.904 238.237 144.971 234.582 154.522C231.052 163.747 225.824 172.107 219.042 179.366C212.261 186.626 204.267 192.421 195.283 196.593C185.981 200.912 176.021 203.29 165.679 203.661C164.732 203.695 163.785 203.712 162.842 203.712ZM162.951 55.1535C162.07 55.1535 161.191 55.1697 160.304 55.201C120.357 56.6365 89.0315 90.1728 90.4727 129.96C91.1706 149.233 99.3629 167.081 113.539 180.219C127.06 192.747 144.481 199.56 162.852 199.56C163.743 199.56 164.636 199.544 165.531 199.511C184.882 198.816 202.802 190.657 215.992 176.537C229.182 162.418 236.061 144.027 235.362 124.754C233.952 85.8502 201.723 55.1535 162.951 55.1535Z" fill="#00227B"/>
<path d="M237.271 126.593C238.017 141.109 233.979 154.828 226.462 166.39C220.826 175.059 196.642 190.962 165.864 192.808C137.327 194.519 110.571 180.683 104.075 172.633C95.4105 161.895 89.9869 148.66 89.2403 134.144C87.2648 95.73 119.582 78.1146 160.462 76.0294C201.341 73.9441 235.295 88.1792 237.271 126.593Z" fill="#3949AB"/>
<path d="M160.909 194.383C146.719 194.383 134.377 190.86 126.185 187.713C115.811 183.728 106.693 178.16 102.955 173.527C93.7822 162.16 88.5439 148.566 87.8059 134.217C87.3161 124.695 88.8928 116.055 92.4894 108.536C95.8758 101.461 101.07 95.33 107.929 90.3134C120.46 81.1479 138.599 75.7157 160.385 74.6051C182.171 73.4945 200.772 77.0519 214.178 84.8942C221.515 89.1866 227.312 94.7569 231.406 101.452C235.755 108.565 238.21 116.999 238.698 126.521C239.436 140.871 235.619 154.925 227.66 167.167C224.354 172.253 216.141 178.487 206.229 183.434C197.522 187.781 183.465 193.183 165.947 194.233C164.246 194.334 162.564 194.383 160.909 194.383ZM168.078 77.2591C165.61 77.2591 163.096 77.3239 160.532 77.4545C139.307 78.537 121.704 83.7792 109.625 92.6134C96.1391 102.477 89.7608 116.426 90.6678 134.071C91.3743 147.817 96.3959 160.843 105.189 171.74C107.804 174.982 115.143 180.413 127.217 185.051C136.099 188.463 149.998 192.331 165.776 191.384C182.81 190.362 196.48 185.109 204.947 180.883C216.294 175.219 222.98 169.118 225.258 165.616C232.887 153.882 236.546 140.413 235.84 126.667C234.933 109.022 227.157 95.7952 212.729 87.355C201.367 80.7086 186.039 77.2591 168.078 77.2591Z" fill="#00227B"/>
<g opacity="0.5">
<g opacity="0.5">
<g opacity="0.5">
<g opacity="0.5">
<path d="M222.42 123.816C223.351 116.616 219.859 110.235 214.621 109.563C209.383 108.891 204.382 114.184 203.451 121.384C202.52 128.584 206.012 134.965 211.25 135.637C216.489 136.309 221.49 131.017 222.42 123.816Z" fill="white"/>
</g>
</g>
</g>
</g>
<g opacity="0.5">
<g opacity="0.5">
<g opacity="0.5">
<g opacity="0.5">
<path d="M207.599 150.58C208.481 147.366 206.951 144.149 204.181 143.395C201.412 142.641 198.452 144.636 197.57 147.85C196.689 151.064 198.219 154.281 200.988 155.035C203.757 155.788 206.717 153.794 207.599 150.58Z" fill="white"/>
</g>
</g>
</g>
</g>
<g opacity="0.35">
<path d="M221.033 91.4907C230.523 99.6287 236.474 111.163 237.27 126.591C238.016 141.11 233.976 154.828 226.464 166.391C220.826 175.06 196.64 190.961 165.862 192.811C154.996 193.466 144.39 191.862 135.058 189.178C172.841 186.102 202.293 166.596 209.283 155.844C218.825 141.168 223.95 123.755 222.999 105.335C222.75 100.411 222.075 95.8015 221.033 91.4907Z" fill="#00227B"/>
</g>
<path d="M93.1308 103.1C92.7104 103.1 92.2877 102.97 91.9258 102.699C91.0741 102.06 90.8779 100.876 91.4577 100.003C94.5526 94.9387 98.5046 90.3106 103.203 86.2481C107.778 82.2935 113.099 78.8408 119.017 75.986C124.811 73.1916 131.215 70.9532 138.051 69.332C144.825 67.726 152.056 66.7179 159.546 66.3359C166.913 65.9603 174.131 66.2139 181 67.0881C187.932 67.971 194.523 69.4896 200.588 71.5997C206.794 73.7594 212.472 76.5483 217.465 79.8888C222.599 83.3231 227.038 87.3619 230.664 91.894C231.297 92.5923 231.362 93.6619 230.769 94.439C230.1 95.3175 228.842 95.4881 227.959 94.8211L227.749 94.6656L227.591 94.4649C214.166 77.6104 189.438 68.8118 159.751 70.3261C129.899 71.849 106.245 83.4408 94.8538 102.129L94.8018 102.214L94.7335 102.304C94.3412 102.825 93.7398 103.1 93.1308 103.1Z" fill="#00227B"/>
<g opacity="0.5">
<g opacity="0.5">
<g opacity="0.5">
<g opacity="0.5">
<path d="M107.039 156.148C107.039 156.148 93.146 118.862 112.875 102.715C132.604 86.567 162.108 85.1239 161.515 87.0429C161.515 87.0429 129.26 96.5841 117.803 122.952C108.968 143.285 107.039 156.148 107.039 156.148Z" fill="white"/>
</g>
</g>
</g>
</g>
<path d="M230.49 337.475H98.2252C93.9427 337.475 90.4707 334.017 90.4707 329.751C90.4707 327.294 92.4711 325.301 94.9386 325.301H233.777C236.244 325.301 238.244 327.294 238.244 329.751C238.244 334.018 234.772 337.475 230.49 337.475Z" fill="#E6E9FA"/>
<g opacity="0.3">
<g opacity="0.3">
<g opacity="0.3">
<g opacity="0.3">
<path opacity="0.3" d="M238.242 329.752C238.242 330.596 238.105 331.407 237.853 332.168C237.159 330.611 235.596 329.532 233.778 329.532H94.9396C93.7075 329.532 92.5892 330.028 91.7808 330.838C91.3961 331.221 91.0808 331.668 90.8597 332.169C90.6083 331.408 90.4707 330.599 90.4707 329.753C90.4707 328.526 90.9681 327.412 91.7819 326.607C92.5903 325.798 93.7086 325.301 94.9407 325.301H233.778C236.246 325.3 238.242 327.293 238.242 329.752Z" fill="white"/>
</g>
</g>
</g>
</g>
<g opacity="0.35">
<g opacity="0.35">
<g opacity="0.35">
<g opacity="0.35">
<path opacity="0.35" d="M238.243 329.752C238.243 331.883 237.376 333.817 235.971 335.21C234.571 336.609 232.629 337.473 230.491 337.473H98.2285C93.9459 337.473 90.4707 334.018 90.4707 329.752C90.4707 328.932 90.6928 328.161 91.0862 327.499C92.2587 330.263 95.0187 332.206 98.2274 332.206H230.49C232.629 332.206 234.571 331.343 235.97 329.943C236.67 329.246 237.237 328.417 237.626 327.499C238.022 328.161 238.243 328.932 238.243 329.752Z" fill="#00227B"/>
</g>
</g>
</g>
</g>
<path d="M230.497 339.439H98.2323C92.8693 339.439 88.5066 335.094 88.5066 329.752C88.5066 326.216 91.3956 323.339 94.9456 323.339H233.784C237.334 323.339 240.223 326.216 240.223 329.752C240.223 335.093 235.86 339.439 230.497 339.439ZM94.9445 327.265C93.5683 327.265 92.4478 328.38 92.4478 329.752C92.4478 332.929 95.042 335.512 98.2312 335.512H230.497C233.686 335.512 236.28 332.929 236.28 329.752C236.28 328.381 235.161 327.265 233.784 327.265H94.9445Z" fill="#00227B"/>
<path d="M245.97 238.346L233.034 325.298H95.6942L95.2261 322.152L82.7512 238.346C82.3427 235.593 84.4862 233.123 87.2754 233.123H241.445C244.241 233.123 246.379 235.593 245.97 238.346Z" fill="#FF66AC"/>
<path d="M245.97 238.346L233.034 325.298H95.6942L95.2261 322.152L82.7512 238.346C82.3427 235.593 84.4862 233.123 87.2754 233.123H241.445C244.241 233.123 246.379 235.593 245.97 238.346Z" fill="#E6E9FA"/>
<g opacity="0.5">
<g opacity="0.5">
<g opacity="0.5">
<g opacity="0.5">
<path opacity="0.5" d="M87.6265 243.744C87.218 240.991 89.3614 238.522 92.1507 238.522H245.943L245.969 238.348C246.378 235.594 244.24 233.125 241.445 233.125H87.2754C84.4862 233.125 82.3427 235.594 82.7512 238.348L95.225 322.154L95.6932 325.3H99.7666L87.6265 243.744Z" fill="white"/>
</g>
</g>
</g>
</g>
<g opacity="0.35">
<g opacity="0.35">
<g opacity="0.35">
<g opacity="0.35">
<path opacity="0.35" d="M237.112 233.123H226.286C230.391 248.102 228.126 281.925 201.644 299.602C168.401 321.793 108.488 321.651 95.7686 322.152L96.2367 325.298H228.7L241.636 238.346C242.045 235.593 239.907 233.123 237.112 233.123Z" fill="#00227B"/>
</g>
</g>
</g>
</g>
<path d="M234.735 327.265H93.9963L80.8074 238.633C80.5278 236.756 81.0815 234.857 82.3255 233.42C83.5696 231.984 85.376 231.16 87.2799 231.16H241.452C243.357 231.16 245.162 231.984 246.406 233.42C247.65 234.857 248.204 236.756 247.924 238.633L234.735 327.265ZM97.3979 323.338H231.334L244.024 238.057C244.137 237.3 243.922 236.564 243.42 235.985C242.919 235.405 242.22 235.087 241.452 235.087H87.2799C86.5116 235.087 85.8127 235.406 85.311 235.985C84.8092 236.564 84.5947 237.3 84.7074 238.057L97.3979 323.338Z" fill="#00227B"/>
<g opacity="0.3">
<g opacity="0.3">
<g opacity="0.3">
<g opacity="0.3">
<path opacity="0.3" d="M106.629 304.984C101.419 293.545 97.625 274.02 98.48 262.528C99.3349 251.037 106.026 254.553 108.101 269.273C113.619 308.447 108.954 310.091 106.629 304.984Z" fill="white"/>
</g>
</g>
</g>
</g>
<path d="M182.308 269.346C182.476 267.878 182.671 266.394 182.381 264.901C182.252 264.739 182.134 264.573 182.005 264.411C181.578 264.258 181.163 264.058 180.719 263.947C177.594 263.143 174.425 262.824 171.207 263.101C167.01 263.461 163.158 264.751 159.845 267.408C158.645 268.367 157.552 269.449 156.432 270.499C156.132 270.784 155.901 270.903 155.48 270.711C154.488 270.262 153.42 270.061 152.335 270.007C149.426 269.875 146.829 270.812 144.407 272.327C141.783 273.974 139.667 276.174 137.697 278.531C136.859 279.529 137.185 280.642 138.433 281.062C139.221 281.317 140.009 281.569 140.797 281.826C142.684 282.434 144.568 283.038 146.45 283.645C146.446 283.704 146.451 283.734 146.442 283.763C146.427 283.8 146.411 283.842 146.385 283.877C145.599 284.883 145.79 285.814 146.618 286.688C146.707 286.785 146.784 286.901 146.862 287.005C147.295 287.573 147.738 288.147 148.198 288.739C147.57 289.221 146.954 289.631 146.409 290.127C146.134 290.376 145.891 290.739 145.787 291.098C145.61 291.678 145.911 292.27 146.429 292.575C146.979 292.904 147.544 292.89 148.056 292.523C148.705 292.063 149.325 291.564 149.985 291.062C150.608 291.881 151.198 292.654 151.791 293.419C152.471 294.29 152.939 294.439 153.992 294.148C154.184 294.089 154.374 294.048 154.6 293.993C154.615 294.217 154.632 294.398 154.642 294.566C154.777 297.277 154.9 299.993 155.05 302.696C155.118 303.979 156.134 304.584 157.297 304.035C158.347 303.541 159.396 303.019 160.426 302.463C162.798 301.178 164.956 299.604 166.678 297.511C168.834 294.878 170.027 291.937 169.469 288.461C169.445 288.324 169.56 288.09 169.679 288.02C170.736 287.341 171.822 286.705 172.881 286.021C175.274 284.468 177.197 282.45 178.701 280.038C180.745 276.76 181.873 273.164 182.308 269.346ZM148.007 281.078C145.828 280.371 143.569 279.637 141.247 278.885C143.645 276.346 146.183 274.129 149.601 273.193C151.078 272.789 152.785 272.823 153.793 273.231C151.879 275.832 149.961 278.433 148.007 281.078ZM166.337 292.235C165.783 293.995 164.726 295.428 163.423 296.706C161.804 298.277 159.92 299.449 157.882 300.517C157.76 298.024 157.634 295.585 157.511 293.196C160.591 292.003 163.604 290.838 166.632 289.666C166.749 290.497 166.606 291.378 166.337 292.235ZM177.713 275.542C176.721 277.872 175.421 279.994 173.566 281.751C172.134 283.099 170.511 284.181 168.801 285.142C164.165 287.749 159.197 289.546 154.117 291.066C153.869 291.137 153.717 291.124 153.553 290.897C153.199 290.395 152.801 289.912 152.426 289.416C152.401 289.388 152.393 289.342 152.357 289.253C152.487 289.15 152.626 289.047 152.765 288.941C155.664 286.724 158.577 284.514 161.477 282.293C162.314 281.659 162.351 280.57 161.575 279.942C161.034 279.501 160.319 279.507 159.694 279.976C157.95 281.301 156.209 282.626 154.469 283.957C153.171 284.946 151.883 285.93 150.535 286.96C150.073 286.358 149.626 285.808 149.223 285.23C149.155 285.126 149.224 284.865 149.317 284.737C150.863 282.44 152.395 280.131 154.003 277.874C155.594 275.634 157.402 273.563 159.392 271.664C161.257 269.869 163.279 268.285 165.722 267.34C167.289 266.733 168.906 266.319 170.576 266.141C170.728 266.119 170.948 266.271 171.055 266.41C172.753 268.596 174.431 270.786 176.114 272.981C176.618 273.634 177.117 274.3 177.637 274.945C177.793 275.139 177.813 275.306 177.713 275.542ZM178.72 272.483C177.042 270.294 175.404 268.165 173.763 266.026C173.765 265.977 173.779 265.92 173.787 265.867C175.697 266.095 177.612 266.328 179.547 266.559C179.511 268.634 179.203 270.535 178.72 272.483Z" fill="#00227B"/>
<path d="M177.639 274.944C177.118 274.298 176.62 273.632 176.115 272.979C174.433 270.785 172.755 268.595 171.057 266.409C170.95 266.269 170.73 266.118 170.578 266.14C168.908 266.318 167.291 266.731 165.724 267.339C163.28 268.283 161.259 269.868 159.394 271.663C157.404 273.562 155.595 275.632 154.005 277.873C152.397 280.131 150.864 282.44 149.319 284.735C149.226 284.864 149.156 285.125 149.225 285.228C149.627 285.807 150.073 286.356 150.537 286.959C151.885 285.929 153.172 284.944 154.471 283.956C156.211 282.625 157.951 281.299 159.696 279.974C160.321 279.506 161.034 279.501 161.577 279.941C162.353 280.57 162.317 281.659 161.479 282.292C158.579 284.513 155.666 286.722 152.767 288.939C152.627 289.046 152.488 289.149 152.359 289.252C152.394 289.342 152.403 289.387 152.428 289.415C152.803 289.91 153.201 290.394 153.555 290.896C153.719 291.123 153.87 291.136 154.118 291.064C159.199 289.545 164.167 287.748 168.803 285.141C170.512 284.18 172.136 283.098 173.568 281.75C175.422 279.993 176.723 277.871 177.715 275.541C177.812 275.305 177.793 275.139 177.639 274.944ZM172.551 278.285C170.335 279.948 167.199 279.542 165.535 277.365C163.859 275.191 164.282 272.07 166.477 270.384C168.633 268.73 171.77 269.158 173.451 271.332C175.112 273.494 174.707 276.662 172.551 278.285Z" fill="white"/>
<path d="M178.716 272.482C177.038 270.297 175.399 268.165 173.76 266.026C173.765 265.975 173.776 265.922 173.783 265.867C175.694 266.097 177.61 266.329 179.546 266.56C179.509 268.632 179.198 270.535 178.716 272.482Z" fill="#DB2C2C"/>
<path d="M153.791 273.232C151.875 275.83 149.957 278.434 148.005 281.08C145.823 280.369 143.563 279.637 141.243 278.886C143.643 276.344 146.18 274.127 149.598 273.194C151.075 272.788 152.78 272.823 153.791 273.232Z" fill="#DB2C2C"/>
<path d="M163.415 296.706C161.797 298.277 159.915 299.451 157.875 300.517C157.752 298.026 157.627 295.587 157.505 293.196C160.586 292.003 163.597 290.84 166.629 289.665C166.745 290.498 166.599 291.376 166.333 292.237C165.78 293.997 164.722 295.429 163.415 296.706Z" fill="#DB2C2C"/>
<path d="M173.451 271.333C171.771 269.158 168.633 268.731 166.478 270.384C164.282 272.071 163.86 275.191 165.535 277.365C167.2 279.542 170.336 279.949 172.552 278.286C174.708 276.662 175.113 273.494 173.451 271.333ZM171.058 276.45C169.936 277.297 168.286 277.073 167.412 275.956C166.507 274.805 166.754 273.112 167.952 272.227C169.073 271.39 170.754 271.633 171.598 272.755C172.48 273.923 172.237 275.562 171.058 276.45Z" fill="#00227B"/>
<path d="M171.049 276.45C169.926 277.297 168.277 277.074 167.4 275.955C166.5 274.805 166.743 273.113 167.941 272.228C169.065 271.392 170.743 271.632 171.587 272.753C172.469 273.922 172.23 275.564 171.049 276.45Z" fill="#22A7F0"/>
<path d="M245.286 242.934C245.286 242.934 234.643 237.903 224.647 242.416C215.075 246.737 208.304 277.504 220.705 285.298C228.359 290.108 233.569 285.859 237.899 287.107C244.322 288.957 257.499 257.278 245.286 242.934Z" fill="white"/>
<g opacity="0.35">
<path d="M250.091 262.957C248.83 275.853 241.994 288.286 237.903 287.108C233.571 285.861 228.362 290.112 220.708 285.301C214.784 281.575 213.236 272.613 214.281 263.786C214.985 268.935 216.981 273.348 220.708 275.69C228.362 280.495 233.458 278.262 237.903 277.496C243.398 276.549 247.878 270.571 250.091 262.957Z" fill="#00227B"/>
<path d="M228.559 289.614C225.976 289.614 222.988 289.052 219.658 286.959C216.677 285.086 214.523 282.054 213.259 277.948C212.197 274.503 211.8 270.304 212.11 265.807C212.478 260.48 213.793 255.016 215.812 250.42C217.355 246.909 220 242.36 223.837 240.628C234.543 235.794 245.667 240.938 246.135 241.16L246.519 241.341L246.793 241.664C252.383 248.228 252.706 257.298 251.991 263.749C251.187 271.018 248.612 278.728 245.268 283.872C241.92 289.024 239.117 289.501 237.355 288.994C236.211 288.665 234.767 288.894 233.094 289.161C231.772 289.373 230.252 289.614 228.559 289.614ZM233.763 242.495C230.767 242.495 227.99 243.066 225.467 244.206C223.392 245.142 221.189 247.982 219.426 251.996C217.61 256.128 216.378 261.26 216.045 266.078C215.458 274.585 217.541 280.986 221.762 283.639C226.018 286.314 229.3 285.79 232.473 285.284C234.524 284.957 236.462 284.648 238.452 285.222C238.681 285.261 240.322 284.631 242.635 280.639C248.031 271.33 251.453 253.749 244.071 244.546C243.235 244.199 241.081 243.384 238.264 242.896C236.715 242.629 235.213 242.495 233.763 242.495Z" fill="#00227B"/>
</g>
<path d="M275.049 130.939C271.253 127.031 268.662 121.901 267.971 116.085C266.292 101.966 276.422 89.1655 290.597 87.4936C304.772 85.8218 317.624 95.9112 319.303 110.03C320.981 124.148 310.852 136.949 296.676 138.621C292.734 139.086 288.895 138.638 285.369 137.45L274.283 142.658L275.049 130.939Z" fill="#FF0068"/>
<g opacity="0.5">
<path opacity="0.5" d="M291.185 92.4101C277.944 93.9719 268.235 105.245 268.381 118.232C268.178 117.347 268.017 116.444 267.906 115.524C266.228 101.405 276.358 88.6044 290.533 86.9326C304.708 85.2607 317.56 95.3501 319.239 109.469C319.349 110.395 319.405 111.313 319.416 112.225C316.519 99.5573 304.431 90.8483 291.185 92.4101Z" fill="white"/>
</g>
<path d="M274.283 144.547C273.908 144.547 273.535 144.437 273.215 144.22C272.66 143.843 272.346 143.203 272.39 142.535L273.104 131.633C269.195 127.36 266.774 122.079 266.087 116.306C265.216 108.976 267.262 101.748 271.849 95.951C276.436 90.155 283.015 86.4843 290.374 85.6165C297.733 84.7488 304.99 86.7865 310.809 91.3552C316.628 95.924 320.313 102.476 321.185 109.806C322.056 117.136 320.01 124.364 315.423 130.16C310.836 135.956 304.257 139.626 296.898 140.494C293.024 140.951 289.192 140.607 285.498 139.474L275.091 144.365C274.834 144.488 274.558 144.547 274.283 144.547ZM293.654 89.202C292.718 89.202 291.773 89.2571 290.82 89.3693C284.468 90.1184 278.788 93.2872 274.828 98.2909C270.868 103.295 269.101 109.535 269.854 115.862C270.475 121.088 272.743 125.848 276.412 129.625C276.784 130.009 276.977 130.53 276.941 131.062L276.383 139.583L284.558 135.742C285.002 135.534 285.51 135.505 285.975 135.661C289.358 136.802 292.883 137.167 296.453 136.746C309.567 135.199 318.972 123.314 317.419 110.253C315.979 98.1387 305.612 89.202 293.654 89.202Z" fill="#00227B"/>
<g opacity="0.3">
<path opacity="0.3" d="M274.856 130.73C283.072 135.009 293.162 135.437 302.086 130.987C311.983 126.052 317.919 116.381 318.529 106.114C318.883 107.379 319.145 108.685 319.305 110.03C320.983 124.148 310.853 136.949 296.678 138.621C292.736 139.086 288.897 138.638 285.371 137.449L274.285 142.658L275.052 130.939C274.985 130.87 274.922 130.799 274.856 130.73Z" fill="#00227B"/>
</g>
<path d="M285.471 105.828C287.708 103.601 291.335 104 293.571 106.228L293.919 106.574L294.267 106.228C296.504 104 300.13 103.601 302.367 105.828C304.604 108.056 304.604 111.668 302.367 113.896L302.019 114.243L294.988 121.246C294.398 121.833 293.442 121.833 292.852 121.246L285.82 114.243L285.472 113.896C283.234 111.667 283.234 108.056 285.471 105.828Z" fill="white"/>
</svg>
