<svg width="224" height="235" viewBox="0 0 224 235" fill="none" xmlns="http://www.w3.org/2000/svg">
<g opacity="0.3">
<path d="M94.8032 59.8701L120.139 74.4975V103.752L94.8032 118.38L69.4677 103.752V74.4975L94.8032 59.8701Z" stroke="#CCCCCC" stroke-width="6"/>
<path d="M126.478 115.74L151.813 130.368V159.622L126.478 174.25L101.142 159.622V130.368L126.478 115.74Z" stroke="#CCCCCC" stroke-width="6"/>
<path d="M160.352 172.49L185.687 187.118V216.372L160.352 231L135.016 216.372V187.118L160.352 172.49Z" stroke="#CCCCCC" stroke-width="6"/>
<path d="M159.911 61.6299L185.247 76.2573V105.512L159.911 120.14L134.576 105.512V76.2573L159.911 61.6299Z" stroke="#CCCCCC" stroke-width="6"/>
<path d="M193.786 118.38L219.122 133.007V162.262L193.786 176.89L168.451 162.262V133.007L193.786 118.38Z" stroke="#CCCCCC" stroke-width="6"/>
<path d="M61.3684 4L86.7038 18.6274V47.8823L61.3684 62.5097L36.0329 47.8823L36.0329 18.6274L61.3684 4Z" stroke="#CCCCCC" stroke-width="6"/>
<path d="M29.2548 59.8701L54.5903 74.4975L54.5903 103.752L29.2548 118.38L3.9194 103.752L3.9194 74.4975L29.2548 59.8701Z" stroke="#CCCCCC" stroke-width="6"/>
</g>
</svg>
