<svg width="18" height="10" viewBox="0 0 18 10" fill="none" xmlns="http://www.w3.org/2000/svg">
<path id="Vector" opacity="0.5" d="M1.28747 2.41473e-06C1.58777 -0.000648971 1.87878 0.115475 2.11001 0.328221L8.99874 6.72138L15.9003 0.556548C16.0318 0.438009 16.183 0.349488 16.3454 0.296071C16.5078 0.242654 16.6781 0.225396 16.8465 0.245288C17.0149 0.26518 17.1781 0.321829 17.3267 0.411981C17.4753 0.502132 17.6064 0.624009 17.7125 0.770605C17.8192 0.916574 17.8989 1.08453 17.9471 1.26482C17.9952 1.44512 18.0107 1.63419 17.9928 1.82117C17.9749 2.00815 17.9239 2.18936 17.8427 2.35438C17.7615 2.5194 17.6517 2.66497 17.5197 2.78274L9.80842 9.67537C9.57845 9.88526 9.29 10 8.99231 10C8.69462 10 8.40617 9.88526 8.1762 9.67537L0.46494 2.54014C0.334802 2.42034 0.227226 2.27321 0.148376 2.10718C0.069526 1.94115 0.0209477 1.75947 0.00542758 1.57256C-0.0100925 1.38566 0.0077507 1.19718 0.0579311 1.01794C0.108112 0.838697 0.189645 0.672208 0.297862 0.528008C0.417457 0.364307 0.568225 0.232057 0.739333 0.140762C0.910441 0.0494667 1.09764 0.0013967 1.28747 2.41473e-06Z" fill="#3949AB"/>
</svg>
