<svg width="33" height="32" viewBox="0 0 33 32" fill="none" xmlns="http://www.w3.org/2000/svg">
<circle cx="16.3356" cy="15.7418" r="15.7418" fill="white"/>
<path d="M24.5048 12.1424C24.496 11.4814 24.3723 10.827 24.1392 10.2085C23.937 9.68671 23.6283 9.21287 23.2326 8.81722C22.8369 8.42156 22.3631 8.11279 21.8414 7.91063C21.2308 7.68142 20.5857 7.55748 19.9336 7.54409C19.0941 7.50657 18.8279 7.49609 16.6968 7.49609C14.5656 7.49609 14.2925 7.49609 13.4591 7.54409C12.8073 7.55758 12.1625 7.68152 11.5522 7.91063C11.0304 8.11265 10.5565 8.42137 10.1608 8.81704C9.76512 9.21272 9.4564 9.68663 9.25438 10.2085C9.02471 10.8186 8.90104 11.4635 8.88872 12.1153C8.85119 12.9557 8.83984 13.2219 8.83984 15.353C8.83984 17.4842 8.83984 17.7565 8.88872 18.5908C8.90181 19.2435 9.02486 19.8876 9.25438 20.4994C9.45674 21.021 9.76569 21.4947 10.1615 21.8902C10.5573 22.2858 11.0313 22.5943 11.5531 22.7963C12.1617 23.0347 12.8066 23.1675 13.4599 23.189C14.3003 23.2266 14.5665 23.2379 16.6977 23.2379C18.8288 23.2379 19.1019 23.2379 19.9354 23.189C20.5874 23.1762 21.2325 23.0525 21.8431 22.8234C22.3647 22.621 22.8384 22.3121 23.2341 21.9165C23.6297 21.5209 23.9385 21.0471 24.1409 20.5255C24.3705 19.9146 24.4935 19.2706 24.5066 18.6169C24.5441 17.7774 24.5555 17.5112 24.5555 15.3792C24.5537 13.2481 24.5537 12.9775 24.5048 12.1424ZM16.6915 19.3832C14.4627 19.3832 12.657 17.5776 12.657 15.3487C12.657 13.1198 14.4627 11.3142 16.6915 11.3142C17.7616 11.3142 18.7878 11.7392 19.5444 12.4958C20.301 13.2525 20.726 14.2787 20.726 15.3487C20.726 16.4187 20.301 17.4449 19.5444 18.2015C18.7878 18.9581 17.7616 19.3832 16.6915 19.3832ZM20.8866 12.1057C20.7631 12.1058 20.6407 12.0816 20.5265 12.0343C20.4123 11.9871 20.3085 11.9178 20.2211 11.8304C20.1338 11.743 20.0645 11.6393 20.0172 11.5251C19.97 11.4109 19.9457 11.2885 19.9459 11.1649C19.9459 11.0414 19.9702 10.9192 20.0174 10.8051C20.0647 10.691 20.134 10.5873 20.2213 10.5C20.3086 10.4127 20.4123 10.3434 20.5263 10.2962C20.6404 10.2489 20.7627 10.2246 20.8862 10.2246C21.0097 10.2246 21.132 10.2489 21.246 10.2962C21.3601 10.3434 21.4638 10.4127 21.5511 10.5C21.6384 10.5873 21.7077 10.691 21.7549 10.8051C21.8022 10.9192 21.8265 11.0414 21.8265 11.1649C21.8265 11.6851 21.4059 12.1057 20.8866 12.1057Z" fill="#06163A"/>
<path d="M16.691 17.969C18.1384 17.969 19.3118 16.7957 19.3118 15.3483C19.3118 13.9009 18.1384 12.7275 16.691 12.7275C15.2437 12.7275 14.0703 13.9009 14.0703 15.3483C14.0703 16.7957 15.2437 17.969 16.691 17.969Z" fill="#06163A"/>
</svg>
