<svg width="27" height="29" viewBox="0 0 27 29" fill="none" xmlns="http://www.w3.org/2000/svg">
<g opacity="0.5">
<path d="M12 1.89231C13.9995 1.89048 15.9546 2.48173 17.618 3.59127C19.2815 4.70081 20.5784 6.27877 21.3449 8.12555C22.1113 9.97233 22.3128 12.0049 21.9238 13.9662C21.5349 15.9276 20.5729 17.7294 19.1597 19.1439C17.7465 20.5585 15.9455 21.522 13.9845 21.9128C12.0236 22.3035 9.9908 22.1039 8.14332 21.3392C6.29585 20.5744 4.7167 19.2789 3.60564 17.6165C2.49458 15.9541 1.90154 13.9995 1.90154 12C1.91366 9.3246 2.98121 6.7621 4.87215 4.86943C6.7631 2.97676 9.32462 1.90687 12 1.89231ZM12 0C9.62663 0 7.30655 0.703788 5.33316 2.02236C3.35977 3.34094 1.8217 5.21508 0.913451 7.4078C0.00519958 9.60051 -0.232441 12.0133 0.230582 14.3411C0.693605 16.6689 1.83649 18.807 3.51472 20.4853C5.19295 22.1635 7.33115 23.3064 9.65892 23.7694C11.9867 24.2324 14.3995 23.9948 16.5922 23.0865C18.7849 22.1783 20.6591 20.6402 21.9776 18.6668C23.2962 16.6934 24 14.3734 24 12C24 8.8174 22.7357 5.76515 20.4853 3.51472C18.2348 1.26428 15.1826 0 12 0Z" fill="black"/>
<path d="M26.744 27.3179L20.251 20L19 21.3906L25.493 28.7085C25.5746 28.8005 25.6715 28.8735 25.7783 28.9235C25.8851 28.9736 25.9996 28.9995 26.1154 29C26.2311 29.0005 26.3458 28.9754 26.453 28.9262C26.5601 28.877 26.6575 28.8047 26.7396 28.7134C26.8217 28.6221 26.887 28.5136 26.9317 28.3941C26.9764 28.2745 26.9996 28.1463 27 28.0167C27.0004 27.8871 26.978 27.7587 26.9341 27.6388C26.8902 27.5189 26.8256 27.4099 26.744 27.3179Z" fill="black"/>
</g>
</svg>
