<svg width="28" height="28" viewBox="0 0 28 28" fill="none" xmlns="http://www.w3.org/2000/svg">
<path fill-rule="evenodd" clip-rule="evenodd" d="M15.0432 5.84041C14.3863 5.51196 13.6131 5.51196 12.9562 5.84041L6.10842 9.26429L12.9562 12.6882C13.6131 13.0166 14.3863 13.0166 15.0432 12.6882L21.8909 9.26429L15.0432 5.84041L15.5649 4.79691L15.0432 5.84041ZM11.9127 3.75341C13.2265 3.09652 14.7729 3.09652 16.0867 3.75342L25.0214 8.22079C25.4167 8.41842 25.6663 8.82239 25.6663 9.26429C25.6663 9.70619 25.4167 10.1102 25.0214 10.3078L16.0867 14.7752C14.7729 15.4321 13.2265 15.4321 11.9127 14.7752L2.97793 10.3078C2.58268 10.1102 2.33301 9.70619 2.33301 9.26429C2.33301 8.82239 2.58268 8.41842 2.97793 8.22079L11.9127 3.75341ZM5.75909 13.7563C5.86855 13.4634 5.8607 13.1276 5.70984 12.8258C5.42169 12.2495 4.7209 12.0159 4.14459 12.3041L2.97793 12.8874C2.58268 13.0851 2.33301 13.489 2.33301 13.9309C2.33301 14.3728 2.58268 14.7768 2.97793 14.9744L12.4344 19.7027C13.4198 20.1953 14.5796 20.1954 15.5649 19.7027L25.0214 14.9744C25.4167 14.7768 25.6663 14.3728 25.6663 13.9309C25.6663 13.489 25.4167 13.0851 25.0214 12.8874L23.8548 12.3041C23.2785 12.0159 22.5777 12.2495 22.2895 12.8258C22.1387 13.1276 22.1308 13.4634 22.2403 13.7563L14.5214 17.6157C14.193 17.7799 13.8064 17.7799 13.4779 17.6157L5.75909 13.7563ZM5.7591 18.4229C5.86855 18.1301 5.8607 17.7942 5.70984 17.4925C5.42169 16.9162 4.7209 16.6826 4.14459 16.9708L2.97793 17.5541C2.58268 17.7517 2.33301 18.1557 2.33301 18.5976C2.33301 19.0395 2.58268 19.4435 2.97793 19.6411L12.4344 24.3693C13.4198 24.862 14.5796 24.862 15.5649 24.3693L25.0214 19.6411C25.4167 19.4435 25.6663 19.0395 25.6663 18.5976C25.6663 18.1557 25.4167 17.7517 25.0214 17.5541L23.8548 16.9708C23.2785 16.6826 22.5777 16.9162 22.2895 17.4925C22.1387 17.7942 22.1308 18.1301 22.2403 18.4229L14.5214 22.2823C14.193 22.4466 13.8064 22.4466 13.4779 22.2823L5.7591 18.4229Z" fill="white"/>
</svg>
