<svg width="33" height="32" viewBox="0 0 33 32" fill="none" xmlns="http://www.w3.org/2000/svg">
<path d="M16.357 0C7.66756 0 0.615234 7.05233 0.615234 15.7418C0.615234 24.4313 7.66756 31.4836 16.357 31.4836C25.0465 31.4836 32.0988 24.4313 32.0988 15.7418C32.0988 7.05233 25.0465 0 16.357 0ZM23.6612 10.7044C23.4251 13.1916 22.4019 19.2365 21.8824 22.0228C21.662 23.2034 21.2213 23.597 20.812 23.6442C19.8989 23.7229 19.2063 23.046 18.3248 22.4636C16.9395 21.5505 16.1524 20.9838 14.8143 20.1023C13.2559 19.0791 14.2634 18.5124 15.1607 17.5993C15.3968 17.3632 19.4267 13.6954 19.5054 13.3648C19.5163 13.3147 19.5149 13.2627 19.5012 13.2134C19.4874 13.164 19.4619 13.1187 19.4267 13.0814C19.3322 13.0027 19.2063 13.0342 19.0961 13.05C18.9544 13.0814 16.7506 14.5454 12.4531 17.4419C11.8234 17.8669 11.2567 18.0873 10.753 18.0716C10.1862 18.0558 9.11581 17.7568 8.31298 17.4891C7.32124 17.1743 6.54989 17.0011 6.61286 16.4502C6.64434 16.1668 7.03789 15.8835 7.77775 15.5844C12.3744 13.5852 15.4283 12.2629 16.9552 11.6332C21.3314 9.80714 22.2287 9.49231 22.8269 9.49231C22.9529 9.49231 23.2519 9.52379 23.4408 9.68121C23.5983 9.80714 23.6455 9.9803 23.6612 10.1062C23.6455 10.2007 23.677 10.484 23.6612 10.7044Z" fill="white"/>
</svg>
