<svg width="22" height="22" viewBox="0 0 22 22" fill="none" xmlns="http://www.w3.org/2000/svg">
<path id="Vector" d="M5.72708 8.11025L5.44994 8.3874L5.65289 8.72271C5.67654 8.76179 5.70039 8.8012 5.72442 8.84091C6.64183 10.3572 7.82759 12.3171 9.12776 13.628L9.12787 13.6281C9.81874 14.3242 10.5435 14.7768 11.2663 15.1594C11.5614 15.3156 11.8415 15.4535 12.1172 15.5892C12.5436 15.7992 12.9594 16.0039 13.4032 16.2628L13.7338 16.4556L14.0062 16.187L16.024 14.1972L21.5 15.2053L21.5 21.4968C21.4536 21.4989 21.4063 21.5 21.3583 21.5L20.7167 21.5C18.166 21.5 15.6769 20.9319 13.2451 19.7899L13.2449 19.7898C10.8007 18.6431 8.63278 17.128 6.73877 15.2436L6.73869 15.2435C4.84565 13.3608 3.33147 11.1997 2.19501 8.75776C1.06314 6.32483 0.500002 3.83478 0.500002 1.28333C0.500002 1.08786 0.504684 0.881584 0.514151 0.664407C0.516779 0.608877 0.519714 0.554075 0.522957 0.499999L6.80121 0.499999L7.89056 5.94677L5.72708 8.11025Z" stroke="#3949AB"/>
</svg>
