<svg width="11" height="16" viewBox="0 0 11 16" fill="none" xmlns="http://www.w3.org/2000/svg">
<path id="Vector" d="M2.22854 1.17016L3.03513 0.925184C3.7915 0.695875 4.5996 1.0669 4.92344 1.79185L5.56811 3.23607C5.84847 3.86489 5.69255 4.6048 5.18281 5.06484L3.76227 6.34526C3.84997 7.11152 4.12134 7.86568 4.57561 8.60772C5.007 9.32565 5.58563 9.95405 6.27726 10.4557L7.9834 9.9145C8.62958 9.71011 9.33422 9.94583 9.73002 10.4992L10.6543 11.7881C11.1153 12.4319 11.0321 13.3192 10.4602 13.8647L9.84771 14.4494C9.23752 15.0312 8.36571 15.2427 7.55986 15.0034C5.65582 14.4394 3.90695 12.7652 2.31025 9.98072C0.7113 7.19199 0.146834 4.82485 0.617597 2.88214C0.815498 2.0646 1.42794 1.413 2.22854 1.17016Z" fill="white"/>
</svg>
