<svg width="33" height="32" viewBox="0 0 33 32" fill="none" xmlns="http://www.w3.org/2000/svg">
<circle cx="16.4" cy="15.7418" r="15.7418" fill="white"/>
<path fill-rule="evenodd" clip-rule="evenodd" d="M24.795 10.0123C24.1663 10.2908 23.4994 10.4735 22.8165 10.5543C23.5358 10.1239 24.0741 9.44689 24.3312 8.64925C23.6549 9.05063 22.915 9.33351 22.1434 9.48569C21.6247 8.93198 20.9377 8.56494 20.1889 8.44152C19.4401 8.31811 18.6716 8.44523 18.0025 8.80316C17.3334 9.16109 16.8012 9.72979 16.4886 10.421C16.176 11.1122 16.1003 11.8873 16.2735 12.6258C14.9036 12.5574 13.5634 12.2016 12.3401 11.5815C11.1168 10.9615 10.0377 10.0911 9.17288 9.02691C8.86637 9.5525 8.70531 10.1502 8.70622 10.7585C8.70622 11.953 9.3142 13.0077 10.2391 13.6252C9.69208 13.6075 9.15708 13.4601 8.67823 13.1951V13.2371C8.67813 14.0323 8.95328 14.8032 9.457 15.4187C9.96072 16.0343 10.662 16.4567 11.4418 16.6143C10.9343 16.7516 10.4023 16.7719 9.8858 16.6737C10.1059 17.358 10.5344 17.9564 11.1115 18.3852C11.6885 18.8141 12.3852 19.0519 13.1041 19.0655C11.8837 20.0223 10.3769 20.5413 8.82586 20.5391C8.5474 20.5391 8.27314 20.523 8.00378 20.4915C9.57911 21.503 11.4123 22.0401 13.2846 22.0385C19.6212 22.0385 23.0858 16.7912 23.0858 12.2405C23.0858 12.0915 23.0823 11.9432 23.076 11.7957C23.7505 11.308 24.3326 10.7041 24.795 10.0123Z" fill="#06163A"/>
</svg>
