<svg width="23" height="23" viewBox="0 0 23 23" fill="none" xmlns="http://www.w3.org/2000/svg">
<path id="Vector" d="M16.5 5.75C16.5 8.51266 14.2627 10.75 11.5 10.75C8.73734 10.75 6.5 8.51266 6.5 5.75C6.5 2.98734 8.73734 0.75 11.5 0.75C14.2627 0.75 16.5 2.98734 16.5 5.75ZM0.75 20.125C0.75 19.4445 1.08492 18.793 1.76581 18.1646C2.45179 17.5314 3.43776 16.9737 4.58961 16.5123C6.8945 15.589 9.67469 15.125 11.5 15.125C13.3253 15.125 16.1055 15.589 18.4104 16.5123C19.5622 16.9737 20.5482 17.5314 21.2342 18.1646C21.9151 18.793 22.25 19.4445 22.25 20.125V22.25H0.75V20.125Z" stroke="#3949AB" stroke-width="1.5"/>
</svg>
