<svg width="261" height="39" viewBox="0 0 261 39" fill="none" xmlns="http://www.w3.org/2000/svg">
<path d="M56.9023 33.4641V32.0375L76.6767 6.75484L76.8749 7.5474H57.1401V5.72451H78.8167V7.15112L59.0819 32.4338L58.8441 31.6412H79.2526V33.4641H56.9023Z" fill="white"/>
<path d="M96.9146 33.6623C94.8539 33.6623 92.9386 33.3188 91.1685 32.6319C89.4249 31.9186 87.8926 30.9279 86.5717 29.6598C85.2772 28.3653 84.2732 26.8727 83.5599 25.1819C82.8466 23.4647 82.49 21.6021 82.49 19.5943C82.49 17.5865 82.8466 15.7372 83.5599 14.0464C84.2732 12.3292 85.2772 10.8365 86.5717 9.56843C87.8926 8.27391 89.4249 7.28321 91.1685 6.59633C92.9386 5.88302 94.8539 5.52637 96.9146 5.52637C98.9752 5.52637 100.877 5.88302 102.621 6.59633C104.391 7.28321 105.923 8.2607 107.218 9.5288C108.512 10.7969 109.516 12.2896 110.23 14.0068C110.969 15.6976 111.339 17.5601 111.339 19.5943C111.339 21.6286 110.969 23.5043 110.23 25.2215C109.516 26.9123 108.512 28.3917 107.218 29.6598C105.923 30.9279 104.391 31.9186 102.621 32.6319C100.877 33.3188 98.9752 33.6623 96.9146 33.6623ZM96.9146 31.7998C98.6846 31.7998 100.323 31.4959 101.828 30.8883C103.334 30.2807 104.642 29.4221 105.752 28.3125C106.861 27.2029 107.72 25.9084 108.327 24.4289C108.962 22.9495 109.279 21.338 109.279 19.5943C109.279 17.8243 108.962 16.2127 108.327 14.7597C107.72 13.2803 106.861 11.9857 105.752 10.8762C104.642 9.76657 103.334 8.90796 101.828 8.30033C100.323 7.6927 98.6846 7.38888 96.9146 7.38888C95.1445 7.38888 93.5066 7.6927 92.0007 8.30033C90.4948 8.90796 89.1739 9.76657 88.0379 10.8762C86.9283 11.9857 86.0565 13.2803 85.4225 14.7597C84.8148 16.2127 84.511 17.8243 84.511 19.5943C84.511 21.338 84.8148 22.9495 85.4225 24.4289C86.0565 25.9084 86.9283 27.2029 88.0379 28.3125C89.1739 29.4221 90.4948 30.2807 92.0007 30.8883C93.5066 31.4959 95.1445 31.7998 96.9146 31.7998Z" fill="white"/>
<path d="M130.119 33.6623C128.058 33.6623 126.143 33.3188 124.372 32.6319C122.629 31.9186 121.097 30.9279 119.776 29.6598C118.481 28.3653 117.477 26.8727 116.764 25.1819C116.051 23.4647 115.694 21.6021 115.694 19.5943C115.694 17.5865 116.051 15.7372 116.764 14.0464C117.477 12.3292 118.481 10.8365 119.776 9.56843C121.097 8.27391 122.629 7.28321 124.372 6.59633C126.143 5.88302 128.058 5.52637 130.119 5.52637C132.179 5.52637 134.081 5.88302 135.825 6.59633C137.595 7.28321 139.127 8.2607 140.422 9.5288C141.716 10.7969 142.72 12.2896 143.434 14.0068C144.173 15.6976 144.543 17.5601 144.543 19.5943C144.543 21.6286 144.173 23.5043 143.434 25.2215C142.72 26.9123 141.716 28.3917 140.422 29.6598C139.127 30.9279 137.595 31.9186 135.825 32.6319C134.081 33.3188 132.179 33.6623 130.119 33.6623ZM130.119 31.7998C131.889 31.7998 133.527 31.4959 135.032 30.8883C136.538 30.2807 137.846 29.4221 138.956 28.3125C140.065 27.2029 140.924 25.9084 141.531 24.4289C142.165 22.9495 142.482 21.338 142.482 19.5943C142.482 17.8243 142.165 16.2127 141.531 14.7597C140.924 13.2803 140.065 11.9857 138.956 10.8762C137.846 9.76657 136.538 8.90796 135.032 8.30033C133.527 7.6927 131.889 7.38888 130.119 7.38888C128.349 7.38888 126.711 7.6927 125.205 8.30033C123.699 8.90796 122.378 9.76657 121.242 10.8762C120.132 11.9857 119.26 13.2803 118.626 14.7597C118.019 16.2127 117.715 17.8243 117.715 19.5943C117.715 21.338 118.019 22.9495 118.626 24.4289C119.26 25.9084 120.132 27.2029 121.242 28.3125C122.378 29.4221 123.699 30.2807 125.205 30.8883C126.711 31.4959 128.349 31.7998 130.119 31.7998Z" fill="white"/>
<path d="M151.553 33.4641V5.72451H162.53C165.462 5.72451 168.038 6.31893 170.257 7.50777C172.477 8.69661 174.194 10.3346 175.409 12.4216C176.651 14.5087 177.272 16.8996 177.272 19.5943C177.272 22.289 176.651 24.6799 175.409 26.767C174.194 28.8541 172.477 30.492 170.257 31.6809C168.038 32.8697 165.462 33.4641 162.53 33.4641H151.553ZM153.574 31.6412H162.371C164.987 31.6412 167.259 31.1261 169.187 30.0958C171.116 29.0654 172.609 27.652 173.665 25.8556C174.722 24.0327 175.251 21.9456 175.251 19.5943C175.251 17.2431 174.722 15.1692 173.665 13.3727C172.609 11.5498 171.116 10.1232 169.187 9.09289C167.259 8.06256 164.987 7.5474 162.371 7.5474H153.574V31.6412Z" fill="white"/>
<path d="M183.183 33.4641V5.72451H194.596C197.053 5.72451 199.153 6.12079 200.897 6.91335C202.667 7.70591 204.027 8.84191 204.978 10.3214C205.929 11.8008 206.405 13.5577 206.405 15.5919C206.405 17.6261 205.929 19.383 204.978 20.8624C204.027 22.3419 202.667 23.4779 200.897 24.2704C199.153 25.063 197.053 25.4593 194.596 25.4593H186.036L188.335 23.042V33.4641H183.183ZM188.335 23.5968L186.036 21.1002H194.358C196.63 21.1002 198.334 20.6247 199.47 19.6736C200.633 18.6961 201.214 17.3355 201.214 15.5919C201.214 13.8218 200.633 12.4613 199.47 11.5102C198.334 10.5591 196.63 10.0836 194.358 10.0836H186.036L188.335 7.5474V23.5968Z" fill="white"/>
<path d="M206.233 33.4641L218.716 5.72451H223.788L236.311 33.4641H230.921L220.182 8.45884H222.243L211.543 33.4641H206.233ZM211.979 27.0444L213.366 23.0023H228.346L229.733 27.0444H211.979Z" fill="white"/>
<path d="M244.991 33.4641V22.4872L246.14 25.6574L234.093 5.72451H239.601L249.27 21.7739H246.179L255.928 5.72451H261L248.953 25.6574L250.142 22.4872V33.4641H244.991Z" fill="white"/>
<rect width="39.628" height="38.7474" rx="4" fill="white"/>
<path d="M28.8807 6.97449H10.7478C10.1955 6.97449 9.7478 7.4222 9.7478 7.97449V11.0117C9.7478 11.5639 10.1955 12.0117 10.7478 12.0117H20.4346C21.2827 12.0117 21.7458 13.0011 21.2025 13.6523L9.97996 27.1032C9.82996 27.283 9.7478 27.5097 9.7478 27.7438V30.6437C9.7478 31.196 10.1955 31.6437 10.7478 31.6437H28.8807C29.433 31.6437 29.8807 31.196 29.8807 30.6437V27.3482C29.8807 26.7959 29.433 26.3482 28.8807 26.3482H19.5958C18.7448 26.3482 18.2827 25.3529 18.8319 24.7029L29.6446 11.9037C29.797 11.7232 29.8807 11.4946 29.8807 11.2583V7.97449C29.8807 7.4222 29.433 6.97449 28.8807 6.97449Z" fill="#303593"/>
<path d="M17.4415 0H22.5709V6.74948C22.5709 7.30177 22.1231 7.74948 21.5709 7.74948H18.4415C17.8892 7.74948 17.4415 7.30177 17.4415 6.74948V0Z" fill="#303593"/>
<path d="M17.4415 31.9979C17.4415 31.4456 17.8892 30.9979 18.4415 30.9979H21.5709C22.1231 30.9979 22.5709 31.4456 22.5709 31.9979V38.7474H17.4415V31.9979Z" fill="#303593"/>
</svg>
