<svg width="90" height="88" viewBox="0 0 90 88" fill="none" xmlns="http://www.w3.org/2000/svg">
<g id="Group 1988">
<rect id="Rectangle 453" width="90" height="88" rx="4" fill="white"/>
<g id="Group 1987">
<path id="Vector 10" d="M66.8612 15.8401H23.1371C22.5848 15.8401 22.1371 16.2878 22.1371 16.8401V26.2801C22.1371 26.8324 22.5848 27.2801 23.1371 27.2801H49.1241C49.9722 27.2801 50.4352 28.2695 49.8919 28.9207L22.3692 61.9085C22.2192 62.0883 22.1371 62.315 22.1371 62.5491V70.8668C22.1371 71.419 22.5848 71.8668 23.1371 71.8668H66.8612C67.4135 71.8668 67.8612 71.419 67.8612 70.8668V60.8401C67.8612 60.2878 67.4135 59.8401 66.8612 59.8401H41.7651C40.9142 59.8401 40.4521 58.8448 41.0012 58.1948L67.6251 26.6796C67.7776 26.4991 67.8612 26.2705 67.8612 26.0342V16.8401C67.8612 16.2878 67.4135 15.8401 66.8612 15.8401Z" fill="#303593"/>
<path id="Rectangle 451" d="M39.6118 0H51.2613V16.6C51.2613 17.1523 50.8136 17.6 50.2613 17.6H40.6118C40.0595 17.6 39.6118 17.1523 39.6118 16.6V0Z" fill="#303593"/>
<path id="Rectangle 452" d="M39.6118 71.3999C39.6118 70.8476 40.0595 70.3999 40.6118 70.3999H50.2613C50.8136 70.3999 51.2613 70.8476 51.2613 71.3999V87.9999H39.6118V71.3999Z" fill="#303593"/>
</g>
</g>
</svg>
